<mxfile host="app.diagrams.net" modified="2024-03-22T18:15:40.127Z" agent="Mozilla/5.0 (Macintosh; Intel Mac OS X 10_15_7) AppleWebKit/537.36 (KHTML, like Gecko) Chrome/122.0.0.0 Safari/537.36" etag="hCIgLQfYMYAeSp5HRx7Y" version="24.0.2" type="github">
  <diagram name="Page-1" id="XhM0amp24mLh4LUqcj9R">
    <mxGraphModel dx="1885" dy="715" grid="1" gridSize="10" guides="1" tooltips="1" connect="1" arrows="1" fold="1" page="1" pageScale="1" pageWidth="850" pageHeight="1100" background="#262626" math="0" shadow="0">
      <root>
        <mxCell id="0" />
        <mxCell id="1" parent="0" />
        <mxCell id="iBqICV7l6kwAUIpkYqQP-1" value="" style="rounded=1;whiteSpace=wrap;html=1;dashed=1;strokeColor=#314354;strokeWidth=2;fillColor=#647687;fontFamily=Verdana;fontSize=12;labelBackgroundColor=none;gradientDirection=north;fontColor=#ffffff;" vertex="1" parent="1">
          <mxGeometry x="220" y="170" width="165" height="560" as="geometry" />
        </mxCell>
        <mxCell id="iBqICV7l6kwAUIpkYqQP-2" value="" style="rounded=1;whiteSpace=wrap;html=1;dashed=1;strokeColor=#314354;strokeWidth=2;fillColor=#647687;fontFamily=Verdana;fontSize=12;fontColor=#ffffff;" vertex="1" parent="1">
          <mxGeometry x="400" y="170" width="165" height="560" as="geometry" />
        </mxCell>
        <mxCell id="iBqICV7l6kwAUIpkYqQP-3" value="" style="rounded=1;whiteSpace=wrap;html=1;dashed=1;strokeColor=#314354;strokeWidth=2;fillColor=#647687;fontFamily=Verdana;fontSize=12;fontColor=#ffffff;" vertex="1" parent="1">
          <mxGeometry x="580" y="170" width="165" height="560" as="geometry" />
        </mxCell>
        <mxCell id="iBqICV7l6kwAUIpkYqQP-4" value="" style="rounded=1;whiteSpace=wrap;html=1;dashed=1;strokeColor=#314354;strokeWidth=2;fillColor=#647687;fontFamily=Verdana;fontSize=12;fontColor=#ffffff;" vertex="1" parent="1">
          <mxGeometry x="760" y="170" width="165" height="560" as="geometry" />
        </mxCell>
        <mxCell id="iBqICV7l6kwAUIpkYqQP-5" value="Data&lt;br&gt;Sources" style="whiteSpace=wrap;html=1;dashed=1;strokeColor=#82b366;strokeWidth=2;fillColor=#d5e8d4;fontFamily=Helvetica;fontSize=18;fontStyle=1;gradientColor=#97d077;" vertex="1" parent="1">
          <mxGeometry x="220" y="170" width="165" height="60" as="geometry" />
        </mxCell>
        <mxCell id="iBqICV7l6kwAUIpkYqQP-6" value="Data&lt;div&gt;Services&lt;/div&gt;" style="whiteSpace=wrap;html=1;dashed=1;strokeColor=#82b366;strokeWidth=2;fillColor=#d5e8d4;fontFamily=Helvetica;fontSize=18;fontStyle=1;gradientColor=#97d077;" vertex="1" parent="1">
          <mxGeometry x="400" y="170" width="165" height="60" as="geometry" />
        </mxCell>
        <mxCell id="iBqICV7l6kwAUIpkYqQP-7" value="Data&lt;div&gt;Stores&lt;/div&gt;" style="whiteSpace=wrap;html=1;dashed=1;strokeColor=#82b366;strokeWidth=2;fillColor=#d5e8d4;fontFamily=Helvetica;fontSize=18;fontStyle=1;gradientColor=#97d077;" vertex="1" parent="1">
          <mxGeometry x="580" y="170" width="165" height="60" as="geometry" />
        </mxCell>
        <mxCell id="iBqICV7l6kwAUIpkYqQP-8" value="Presentation" style="whiteSpace=wrap;html=1;dashed=1;strokeColor=#82b366;strokeWidth=2;fillColor=#d5e8d4;fontFamily=Helvetica;fontSize=18;fontStyle=1;gradientColor=#97d077;" vertex="1" parent="1">
          <mxGeometry x="760" y="170" width="165" height="60" as="geometry" />
        </mxCell>
        <mxCell id="iBqICV7l6kwAUIpkYqQP-13" value="" style="verticalLabelPosition=bottom;html=1;verticalAlign=top;strokeColor=none;fillColor=#FFFFFF;shape=mxgraph.azure.mobile;dashed=1;fontFamily=Helvetica;fontSize=14;fontColor=#004C99" vertex="1" parent="1">
          <mxGeometry x="272.74" y="390" width="56.5" height="84" as="geometry" />
        </mxCell>
        <mxCell id="iBqICV7l6kwAUIpkYqQP-14" value="&lt;font color=&quot;#ffffff&quot;&gt;Handheld&lt;/font&gt;&lt;div&gt;&lt;font color=&quot;#ffffff&quot;&gt;Scanners&lt;/font&gt;&lt;/div&gt;" style="verticalLabelPosition=bottom;html=1;verticalAlign=top;strokeColor=none;fillColor=#FFFFFF;shape=mxgraph.azure.laptop;dashed=1;fontFamily=Helvetica;fontSize=14;fontColor=#004C99" vertex="1" parent="1">
          <mxGeometry x="266.49" y="413" width="69" height="61" as="geometry" />
        </mxCell>
        <mxCell id="iBqICV7l6kwAUIpkYqQP-16" value="Business Intelligence and Analytics Diagram&lt;div style=&quot;font-size: 22px;&quot;&gt;Home Renovation Warehouse&lt;/div&gt;" style="text;html=1;strokeColor=none;fillColor=none;align=center;verticalAlign=middle;whiteSpace=wrap;overflow=hidden;dashed=1;fontSize=36;fontColor=#FFFFFF;fontFamily=Helvetica;fontStyle=1" vertex="1" parent="1">
          <mxGeometry x="40" y="60" width="1060" height="90" as="geometry" />
        </mxCell>
        <mxCell id="iBqICV7l6kwAUIpkYqQP-17" value="&lt;font color=&quot;#97d077&quot;&gt;Data&lt;/font&gt;&lt;div&gt;&lt;font color=&quot;#97d077&quot;&gt;Management&lt;/font&gt;&lt;/div&gt;&lt;div&gt;&lt;font color=&quot;#97d077&quot;&gt;System&lt;/font&gt;&lt;/div&gt;" style="rounded=1;whiteSpace=wrap;html=1;dashed=1;strokeColor=none;strokeWidth=2;fillColor=#000000;fontFamily=Helvetica;fontSize=14;fontColor=#FFB366;opacity=75;verticalAlign=top;fontStyle=1" vertex="1" parent="1">
          <mxGeometry x="413" y="240" width="140" height="470" as="geometry" />
        </mxCell>
        <mxCell id="iBqICV7l6kwAUIpkYqQP-47" style="edgeStyle=orthogonalEdgeStyle;rounded=0;orthogonalLoop=1;jettySize=auto;html=1;strokeColor=#FFFFFF;" edge="1" parent="1" source="iBqICV7l6kwAUIpkYqQP-18" target="iBqICV7l6kwAUIpkYqQP-31">
          <mxGeometry relative="1" as="geometry" />
        </mxCell>
        <mxCell id="iBqICV7l6kwAUIpkYqQP-18" value="&lt;font color=&quot;#ffffff&quot;&gt;SQL Database&lt;/font&gt;" style="verticalLabelPosition=bottom;html=1;verticalAlign=top;strokeColor=none;fillColor=#00CC00;shape=mxgraph.azure.sql_database;dashed=1;fontFamily=Helvetica;fontSize=14;fontColor=#004C99" vertex="1" parent="1">
          <mxGeometry x="464.25" y="319" width="37.5" height="50" as="geometry" />
        </mxCell>
        <mxCell id="iBqICV7l6kwAUIpkYqQP-19" style="edgeStyle=orthogonalEdgeStyle;rounded=0;orthogonalLoop=1;jettySize=auto;html=1;exitX=0.25;exitY=1;exitDx=0;exitDy=0;entryX=0.25;entryY=0;entryDx=0;entryDy=0;strokeColor=#FFFFFF;" edge="1" parent="1" source="iBqICV7l6kwAUIpkYqQP-20" target="iBqICV7l6kwAUIpkYqQP-37">
          <mxGeometry relative="1" as="geometry" />
        </mxCell>
        <mxCell id="iBqICV7l6kwAUIpkYqQP-20" value="&lt;font color=&quot;#97d077&quot;&gt;Data&lt;br&gt;Warehouse&lt;/font&gt;" style="rounded=1;whiteSpace=wrap;html=1;dashed=1;strokeColor=none;strokeWidth=2;fillColor=#000000;fontFamily=Helvetica;fontSize=14;fontColor=#FFB366;opacity=75;verticalAlign=top;fontStyle=1" vertex="1" parent="1">
          <mxGeometry x="594" y="240" width="140" height="200" as="geometry" />
        </mxCell>
        <mxCell id="iBqICV7l6kwAUIpkYqQP-21" value="&lt;font color=&quot;#ffffff&quot;&gt;Online&lt;/font&gt;&lt;div&gt;&lt;font color=&quot;#ffffff&quot;&gt;Inventory&lt;/font&gt;&lt;/div&gt;&lt;div&gt;&lt;font color=&quot;#ffffff&quot;&gt;Dashboard&lt;/font&gt;&lt;/div&gt;" style="verticalLabelPosition=bottom;html=1;verticalAlign=top;strokeColor=none;fillColor=#FFFFFF;shape=mxgraph.azure.laptop;dashed=1;fontFamily=Helvetica;fontSize=14;fontColor=#004C99" vertex="1" parent="1">
          <mxGeometry x="796.5" y="271" width="92" height="51" as="geometry" />
        </mxCell>
        <mxCell id="iBqICV7l6kwAUIpkYqQP-23" value="" style="arrow;html=1;endArrow=block;endFill=1;strokeColor=none;strokeWidth=4;fontFamily=Helvetica;fontSize=36;fontColor=#FFB366;fillColor=#667D12;" edge="1" parent="1">
          <mxGeometry width="100" height="100" relative="1" as="geometry">
            <mxPoint x="543.5" y="463" as="sourcePoint" />
            <mxPoint x="603.5" y="463" as="targetPoint" />
          </mxGeometry>
        </mxCell>
        <mxCell id="iBqICV7l6kwAUIpkYqQP-25" value="" style="arrow;html=1;endArrow=block;endFill=1;strokeColor=none;strokeWidth=4;fontFamily=Helvetica;fontSize=36;fontColor=#FFB366;fillColor=#667D12;" edge="1" parent="1">
          <mxGeometry width="100" height="100" relative="1" as="geometry">
            <mxPoint x="363.5" y="463" as="sourcePoint" />
            <mxPoint x="423.5" y="463" as="targetPoint" />
          </mxGeometry>
        </mxCell>
        <mxCell id="iBqICV7l6kwAUIpkYqQP-26" value="" style="arrow;html=1;endArrow=block;endFill=1;strokeColor=none;strokeWidth=4;fontFamily=Helvetica;fontSize=36;fontColor=#FFB366;fillColor=#667D12;" edge="1" parent="1">
          <mxGeometry width="100" height="100" relative="1" as="geometry">
            <mxPoint x="723.5" y="463" as="sourcePoint" />
            <mxPoint x="783.5" y="463" as="targetPoint" />
          </mxGeometry>
        </mxCell>
        <mxCell id="iBqICV7l6kwAUIpkYqQP-27" value="&lt;font style=&quot;font-size: 19px;&quot; color=&quot;#000000&quot;&gt;ERP&lt;/font&gt;" style="strokeWidth=2;html=1;shape=mxgraph.lean_mapping.mrp_erp;whiteSpace=wrap;fillColor=#97D077;fontColor=#004C99;strokeColor=#E6E6E6;" vertex="1" parent="1">
          <mxGeometry x="264.56" y="271" width="72.87" height="80" as="geometry" />
        </mxCell>
        <mxCell id="iBqICV7l6kwAUIpkYqQP-30" style="edgeStyle=orthogonalEdgeStyle;rounded=0;orthogonalLoop=1;jettySize=auto;html=1;exitX=0.5;exitY=1;exitDx=0;exitDy=0;entryX=0.5;entryY=0;entryDx=0;entryDy=0;strokeColor=#E6E6E6;" edge="1" parent="1" source="iBqICV7l6kwAUIpkYqQP-31" target="iBqICV7l6kwAUIpkYqQP-33">
          <mxGeometry relative="1" as="geometry" />
        </mxCell>
        <mxCell id="iBqICV7l6kwAUIpkYqQP-31" value="Extract" style="shape=image;verticalLabelPosition=bottom;labelBackgroundColor=none;verticalAlign=top;aspect=fixed;imageAspect=0;image=data:image/svg+xml,PHN2ZyB4bWxuczpjYz0iaHR0cDovL2NyZWF0aXZlY29tbW9ucy5vcmcvbnMjIiB4bWxuczpkYz0iaHR0cDovL3B1cmwub3JnL2RjL2VsZW1lbnRzLzEuMS8iIHhtbG5zOmlua3NjYXBlPSJodHRwOi8vd3d3Lmlua3NjYXBlLm9yZy9uYW1lc3BhY2VzL2lua3NjYXBlIiB4bWxuczpyZGY9Imh0dHA6Ly93d3cudzMub3JnLzE5OTkvMDIvMjItcmRmLXN5bnRheC1ucyMiIHhtbG5zOnNvZGlwb2RpPSJodHRwOi8vc29kaXBvZGkuc291cmNlZm9yZ2UubmV0L0RURC9zb2RpcG9kaS0wLmR0ZCIgeG1sbnM6c3ZnPSJodHRwOi8vd3d3LnczLm9yZy8yMDAwL3N2ZyIgeG1sbnM9Imh0dHA6Ly93d3cudzMub3JnLzIwMDAvc3ZnIiB4bWxuczp4bGluaz0iaHR0cDovL3d3dy53My5vcmcvMTk5OS94bGluayIgdmVyc2lvbj0iMS4xIiBpZD0ic3ZnNTYwMTYiIGlua3NjYXBlOnZlcnNpb249IjAuOTIuMyAoMjQwNTU0NiwgMjAxOC0wMy0xMSkiIHNvZGlwb2RpOmRvY25hbWU9ImV0bC5zdmciIHg9IjBweCIgeT0iMHB4IiB2aWV3Qm94PSIwIDAgNTMuMzYgMzIuOTgiIHN0eWxlPSJlbmFibGUtYmFja2dyb3VuZDpuZXcgMCAwIDUzLjM2IDMyLjk4OyIgeG1sOnNwYWNlPSJwcmVzZXJ2ZSI+JiN4YTs8c29kaXBvZGk6bmFtZWR2aWV3IGJvcmRlcmNvbG9yPSIjNjY2NjY2IiBib3JkZXJvcGFjaXR5PSIxIiBmaXQtbWFyZ2luLWJvdHRvbT0iMCIgZml0LW1hcmdpbi1sZWZ0PSIwIiBmaXQtbWFyZ2luLXJpZ2h0PSIwIiBmaXQtbWFyZ2luLXRvcD0iMCIgZ3JpZHRvbGVyYW5jZT0iMTAiIGd1aWRldG9sZXJhbmNlPSIxMCIgaWQ9Im5hbWVkdmlldzU2MDE4IiBpbmtzY2FwZTpjdXJyZW50LWxheWVyPSJzdmc1NjAxNiIgaW5rc2NhcGU6Y3g9IjM1Ljk5NTUwOSIgaW5rc2NhcGU6Y3k9IjEzLjU4MDkxMSIgaW5rc2NhcGU6cGFnZW9wYWNpdHk9IjAiIGlua3NjYXBlOnBhZ2VzaGFkb3c9IjIiIGlua3NjYXBlOndpbmRvdy1oZWlnaHQ9IjEwMTciIGlua3NjYXBlOndpbmRvdy1tYXhpbWl6ZWQ9IjEiIGlua3NjYXBlOndpbmRvdy13aWR0aD0iMTkyMCIgaW5rc2NhcGU6d2luZG93LXg9Ii04IiBpbmtzY2FwZTp3aW5kb3cteT0iLTgiIGlua3NjYXBlOnpvb209IjkuMzYxMjkyIiBvYmplY3R0b2xlcmFuY2U9IjEwIiBwYWdlY29sb3I9IiNmZmZmZmYiIHNob3dncmlkPSJmYWxzZSI+JiN4YTsJPC9zb2RpcG9kaTpuYW1lZHZpZXc+JiN4YTs8ZyBpZD0iZzU2MDE0IiB0cmFuc2Zvcm09InRyYW5zbGF0ZSgtMC43NSwtMC45OTY2MTgyMSkiPiYjeGE7CTx0aXRsZSBpZD0idGl0bGU1NTc0OSI+UGFnZS0xPC90aXRsZT4mI3hhOwk8ZyBpZD0iZ3JvdXAzMDAxLTEiIHRyYW5zZm9ybT0idHJhbnNsYXRlKDEuNSwtMS41KSI+JiN4YTsJCTx0aXRsZSBpZD0idGl0bGU1NTc1MSI+RVRMPC90aXRsZT4mI3hhOwkJPGcgaWQ9Imdyb3VwMzAwMi0yIiB0cmFuc2Zvcm09InRyYW5zbGF0ZSgyOC41MDQzKSI+JiN4YTsJCQk8dGl0bGUgaWQ9InRpdGxlNTU3NTMiPmcxNTkxMC4zNzkyNDwvdGl0bGU+JiN4YTsJCQk8ZyBpZD0ic2hhcGUzMDAzLTMiIHRyYW5zZm9ybT0idHJhbnNsYXRlKDEzLjIsLTIxLjgzMDgpIj4mI3hhOwkJCQk8dGl0bGUgaWQ9InRpdGxlNTU3NTUiPnBvbHlnb24xNTkwMDwvdGl0bGU+JiN4YTsJCQkJPHBhdGggaWQ9InBhdGg1NTc1NyIgaW5rc2NhcGU6Y29ubmVjdG9yLWN1cnZhdHVyZT0iMCIgc3R5bGU9ImZpbGw6I0U1RTVFNTsiIGQ9Ik0xMC42NiwzNC43M0gwVjI0LjU4TDEwLjY2LDM0LjczeiIvPiYjeGE7CQkJPC9nPiYjeGE7CQkJPGcgaWQ9InNoYXBlMzAwNC01IiB0cmFuc2Zvcm09InRyYW5zbGF0ZSgxLjAxNTM4LC0xLjAxNTM4KSI+JiN4YTsJCQkJPHRpdGxlIGlkPSJ0aXRsZTU1NzYwIj5yZWN0MTU5MDI8L3RpdGxlPiYjeGE7CQkJCTxyZWN0IGlkPSJyZWN0NTU3NjIiIHg9IjAiIHk9IjQuMjciIHN0eWxlPSJmaWxsOiNGRkZGRkY7IiB3aWR0aD0iMTIuMTgiIGhlaWdodD0iMzAuNDYiLz4mI3hhOwkJCTwvZz4mI3hhOwkJCTxnIGlkPSJzaGFwZTMwMDUtNyI+JiN4YTsJCQkJPHRpdGxlIGlkPSJ0aXRsZTU1NzY1Ij5wYXRoMTU5MDQ8L3RpdGxlPiYjeGE7CQkJCSYjeGE7CQkJCQk8cGF0aCBpZD0icGF0aDU1NzY3IiBpbmtzY2FwZTpjb25uZWN0b3ItY3VydmF0dXJlPSIwIiBzdHlsZT0iZmlsbDpub25lO3N0cm9rZTojNTU2QThBO3N0cm9rZS13aWR0aDoxLjU7c3Ryb2tlLW1pdGVybGltaXQ6MzsiIGQ9IiAgICAgIE0xMy4xNCwzLjI1SDAuNTFDMC4yMywzLjI1LDAsMy40OCwwLDMuNzZjMCwwLDAsMCwwLDBsMCwzMC40NmMwLDAuMjgsMC4yMywwLjUxLDAuNTEsMC41MWwyMi4zNCwwYzAuMjgsMCwwLjUxLTAuMjMsMC41MS0wLjUxICAgICAgbC0wLjAxLTIxLjEzTDEzLjE0LDMuMjV6Ii8+JiN4YTsJCQk8L2c+JiN4YTsJCQk8ZyBpZD0ic2hhcGUzMDA2LTkiIHRyYW5zZm9ybT0idHJhbnNsYXRlKDAuNTA3NjkyLC0wLjUwNzY5MikiPiYjeGE7CQkJCTx0aXRsZSBpZD0idGl0bGU1NTc3MCI+cmVjdDE1OTA2PC90aXRsZT4mI3hhOwkJCQk8cmVjdCBpZD0icmVjdDU1NzcyIiB4PSIwIiB5PSI0LjI3IiBzdHlsZT0iZmlsbDojRTVFNUU1OyIgd2lkdGg9IjguMTIiIGhlaWdodD0iMzAuNDYiLz4mI3hhOwkJCTwvZz4mI3hhOwkJCTxnIGlkPSJzaGFwZTMwMDctMTEiIHRyYW5zZm9ybT0idHJhbnNsYXRlKDEzLjIsLTIxLjU3NjkpIj4mI3hhOwkJCQk8dGl0bGUgaWQ9InRpdGxlNTU3NzUiPnBvbHlsaW5lMTU5MDg8L3RpdGxlPiYjeGE7CQkJCTxwYXRoIGlkPSJwYXRoNTU3NzciIGlua3NjYXBlOmNvbm5lY3Rvci1jdXJ2YXR1cmU9IjAiIHN0eWxlPSJmaWxsOm5vbmU7IiBkPSJNMCwyNC41OHYxMC4xNWgxMC42NkwwLDI0LjU4eiIvPiYjeGE7CQkJCSYjeGE7CQkJCQk8cGF0aCBpZD0icGF0aDU1Nzc5IiBpbmtzY2FwZTpjb25uZWN0b3ItY3VydmF0dXJlPSIwIiBzdHlsZT0iZmlsbDpub25lO3N0cm9rZTojNTU2QThBO3N0cm9rZS13aWR0aDoxLjU7c3Ryb2tlLW1pdGVybGltaXQ6MzsiIGQ9IiAgICAgIE0wLDI0LjU4djEwLjE1aDEwLjY2Ii8+JiN4YTsJCQk8L2c+JiN4YTsJCTwvZz4mI3hhOwkJPGcgaWQ9Imdyb3VwMzAwOC0xNCIgdHJhbnNmb3JtPSJ0cmFuc2xhdGUoMjQuMjM0NCkiPiYjeGE7CQkJPHRpdGxlIGlkPSJ0aXRsZTU1NzgzIj5nMTU5MTAuMzc5MzA8L3RpdGxlPiYjeGE7CQkJPGcgaWQ9InNoYXBlMzAwOS0xNSIgdHJhbnNmb3JtPSJ0cmFuc2xhdGUoMTMuMiwtMjEuODMwOCkiPiYjeGE7CQkJCTx0aXRsZSBpZD0idGl0bGU1NTc4NSI+cG9seWdvbjE1OTAwPC90aXRsZT4mI3hhOwkJCQk8cGF0aCBpZD0icGF0aDU1Nzg3IiBpbmtzY2FwZTpjb25uZWN0b3ItY3VydmF0dXJlPSIwIiBzdHlsZT0iZmlsbDojRTVFNUU1OyIgZD0iTTEwLjY2LDM0LjczSDBWMjQuNThMMTAuNjYsMzQuNzN6Ii8+JiN4YTsJCQk8L2c+JiN4YTsJCQk8ZyBpZD0ic2hhcGUzMDEwLTE3IiB0cmFuc2Zvcm09InRyYW5zbGF0ZSgxLjAxNTM4LC0xLjAxNTM4KSI+JiN4YTsJCQkJPHRpdGxlIGlkPSJ0aXRsZTU1NzkwIj5yZWN0MTU5MDI8L3RpdGxlPiYjeGE7CQkJCTxyZWN0IGlkPSJyZWN0NTU3OTIiIHg9IjAiIHk9IjQuMjciIHN0eWxlPSJmaWxsOiNGRkZGRkY7IiB3aWR0aD0iMTIuMTgiIGhlaWdodD0iMzAuNDYiLz4mI3hhOwkJCTwvZz4mI3hhOwkJCTxnIGlkPSJzaGFwZTMwMTEtMTkiPiYjeGE7CQkJCTx0aXRsZSBpZD0idGl0bGU1NTc5NSI+cGF0aDE1OTA0PC90aXRsZT4mI3hhOwkJCQkmI3hhOwkJCQkJPHBhdGggaWQ9InBhdGg1NTc5NyIgaW5rc2NhcGU6Y29ubmVjdG9yLWN1cnZhdHVyZT0iMCIgc3R5bGU9ImZpbGw6bm9uZTtzdHJva2U6IzU1NkE4QTtzdHJva2Utd2lkdGg6MS41O3N0cm9rZS1taXRlcmxpbWl0OjM7IiBkPSIgICAgICBNMTMuMTQsMy4yNUgwLjUxQzAuMjMsMy4yNSwwLDMuNDgsMCwzLjc2YzAsMCwwLDAsMCwwbDAsMzAuNDZjMCwwLjI4LDAuMjMsMC41MSwwLjUxLDAuNTFsMjIuMzQsMGMwLjI4LDAsMC41MS0wLjIzLDAuNTEtMC41MSAgICAgIGwtMC4wMS0yMS4xM0wxMy4xNCwzLjI1eiIvPiYjeGE7CQkJPC9nPiYjeGE7CQkJPGcgaWQ9InNoYXBlMzAxMi0yMSIgdHJhbnNmb3JtPSJ0cmFuc2xhdGUoMC41MDc2OTIsLTAuNTA3NjkyKSI+JiN4YTsJCQkJPHRpdGxlIGlkPSJ0aXRsZTU1ODAwIj5yZWN0MTU5MDY8L3RpdGxlPiYjeGE7CQkJCTxyZWN0IGlkPSJyZWN0NTU4MDIiIHg9IjAiIHk9IjQuMjciIHN0eWxlPSJmaWxsOiNFNUU1RTU7IiB3aWR0aD0iOC4xMiIgaGVpZ2h0PSIzMC40NiIvPiYjeGE7CQkJPC9nPiYjeGE7CQkJPGcgaWQ9InNoYXBlMzAxMy0yMyIgdHJhbnNmb3JtPSJ0cmFuc2xhdGUoMTMuMiwtMjEuNTc2OSkiPiYjeGE7CQkJCTx0aXRsZSBpZD0idGl0bGU1NTgwNSI+cG9seWxpbmUxNTkwODwvdGl0bGU+JiN4YTsJCQkJPHBhdGggaWQ9InBhdGg1NTgwNyIgaW5rc2NhcGU6Y29ubmVjdG9yLWN1cnZhdHVyZT0iMCIgc3R5bGU9ImZpbGw6bm9uZTsiIGQ9Ik0wLDI0LjU4djEwLjE1aDEwLjY2TDAsMjQuNTh6Ii8+JiN4YTsJCQkJJiN4YTsJCQkJCTxwYXRoIGlkPSJwYXRoNTU4MDkiIGlua3NjYXBlOmNvbm5lY3Rvci1jdXJ2YXR1cmU9IjAiIHN0eWxlPSJmaWxsOm5vbmU7c3Ryb2tlOiM1NTZBOEE7c3Ryb2tlLXdpZHRoOjEuNTtzdHJva2UtbWl0ZXJsaW1pdDozOyIgZD0iICAgICAgTTAsMjQuNTh2MTAuMTVoMTAuNjYiLz4mI3hhOwkJCTwvZz4mI3hhOwkJPC9nPiYjeGE7CQk8ZyBpZD0iZ3JvdXAzMDE0LTI2IiB0cmFuc2Zvcm09InRyYW5zbGF0ZSgyMC41NzI4KSI+JiN4YTsJCQk8dGl0bGUgaWQ9InRpdGxlNTU4MTMiPmcxNTkxMC4zNzkzNjwvdGl0bGU+JiN4YTsJCQk8ZyBpZD0ic2hhcGUzMDE1LTI3IiB0cmFuc2Zvcm09InRyYW5zbGF0ZSgxMy4yLC0yMS44MzA4KSI+JiN4YTsJCQkJPHRpdGxlIGlkPSJ0aXRsZTU1ODE1Ij5wb2x5Z29uMTU5MDA8L3RpdGxlPiYjeGE7CQkJCTxwYXRoIGlkPSJwYXRoNTU4MTciIGlua3NjYXBlOmNvbm5lY3Rvci1jdXJ2YXR1cmU9IjAiIHN0eWxlPSJmaWxsOiNFNUU1RTU7IiBkPSJNMTAuNjYsMzQuNzNIMFYyNC41OEwxMC42NiwzNC43M3oiLz4mI3hhOwkJCTwvZz4mI3hhOwkJCTxnIGlkPSJzaGFwZTMwMTYtMjkiIHRyYW5zZm9ybT0idHJhbnNsYXRlKDEuMDE1MzgsLTEuMDE1MzgpIj4mI3hhOwkJCQk8dGl0bGUgaWQ9InRpdGxlNTU4MjAiPnJlY3QxNTkwMjwvdGl0bGU+JiN4YTsJCQkJPHJlY3QgaWQ9InJlY3Q1NTgyMiIgeD0iMCIgeT0iNC4yNyIgc3R5bGU9ImZpbGw6I0ZGRkZGRjsiIHdpZHRoPSIxMi4xOCIgaGVpZ2h0PSIzMC40NiIvPiYjeGE7CQkJPC9nPiYjeGE7CQkJPGcgaWQ9InNoYXBlMzAxNy0zMSI+JiN4YTsJCQkJPHRpdGxlIGlkPSJ0aXRsZTU1ODI1Ij5wYXRoMTU5MDQ8L3RpdGxlPiYjeGE7CQkJCSYjeGE7CQkJCQk8cGF0aCBpZD0icGF0aDU1ODI3IiBpbmtzY2FwZTpjb25uZWN0b3ItY3VydmF0dXJlPSIwIiBzdHlsZT0iZmlsbDpub25lO3N0cm9rZTojNTU2QThBO3N0cm9rZS13aWR0aDoxLjU7c3Ryb2tlLW1pdGVybGltaXQ6MzsiIGQ9IiAgICAgIE0xMy4xNCwzLjI1SDAuNTFDMC4yMywzLjI1LDAsMy40OCwwLDMuNzZjMCwwLDAsMCwwLDBsMCwzMC40NmMwLDAuMjgsMC4yMywwLjUxLDAuNTEsMC41MWwyMi4zNCwwYzAuMjgsMCwwLjUxLTAuMjMsMC41MS0wLjUxICAgICAgbC0wLjAxLTIxLjEzTDEzLjE0LDMuMjV6Ii8+JiN4YTsJCQk8L2c+JiN4YTsJCQk8ZyBpZD0ic2hhcGUzMDE4LTMzIiB0cmFuc2Zvcm09InRyYW5zbGF0ZSgwLjUwNzY5MiwtMC41MDc2OTIpIj4mI3hhOwkJCQk8dGl0bGUgaWQ9InRpdGxlNTU4MzAiPnJlY3QxNTkwNjwvdGl0bGU+JiN4YTsJCQkJPHJlY3QgaWQ9InJlY3Q1NTgzMiIgeD0iMCIgeT0iNC4yNyIgc3R5bGU9ImZpbGw6I0U1RTVFNTsiIHdpZHRoPSI4LjEyIiBoZWlnaHQ9IjMwLjQ2Ii8+JiN4YTsJCQk8L2c+JiN4YTsJCQk8ZyBpZD0ic2hhcGUzMDE5LTM1IiB0cmFuc2Zvcm09InRyYW5zbGF0ZSgxMy4yLC0yMS41NzY5KSI+JiN4YTsJCQkJPHRpdGxlIGlkPSJ0aXRsZTU1ODM1Ij5wb2x5bGluZTE1OTA4PC90aXRsZT4mI3hhOwkJCQk8cGF0aCBpZD0icGF0aDU1ODM3IiBpbmtzY2FwZTpjb25uZWN0b3ItY3VydmF0dXJlPSIwIiBzdHlsZT0iZmlsbDpub25lOyIgZD0iTTAsMjQuNTh2MTAuMTVoMTAuNjZMMCwyNC41OHoiLz4mI3hhOwkJCQkmI3hhOwkJCQkJPHBhdGggaWQ9InBhdGg1NTgzOSIgaW5rc2NhcGU6Y29ubmVjdG9yLWN1cnZhdHVyZT0iMCIgc3R5bGU9ImZpbGw6bm9uZTtzdHJva2U6IzU1NkE4QTtzdHJva2Utd2lkdGg6MS41O3N0cm9rZS1taXRlcmxpbWl0OjM7IiBkPSIgICAgICBNMCwyNC41OHYxMC4xNWgxMC42NiIvPiYjeGE7CQkJPC9nPiYjeGE7CQk8L2c+JiN4YTsJCTxnIGlkPSJncm91cDMwMjAtMzgiIHRyYW5zZm9ybT0idHJhbnNsYXRlKDE2LjY5MDYpIj4mI3hhOwkJCTx0aXRsZSBpZD0idGl0bGU1NTg0MyI+ZzE1OTEwLjM3OTQyPC90aXRsZT4mI3hhOwkJCTxnIGlkPSJzaGFwZTMwMjEtMzkiIHRyYW5zZm9ybT0idHJhbnNsYXRlKDEzLjIsLTIxLjgzMDgpIj4mI3hhOwkJCQk8dGl0bGUgaWQ9InRpdGxlNTU4NDUiPnBvbHlnb24xNTkwMDwvdGl0bGU+JiN4YTsJCQkJPHBhdGggaWQ9InBhdGg1NTg0NyIgaW5rc2NhcGU6Y29ubmVjdG9yLWN1cnZhdHVyZT0iMCIgc3R5bGU9ImZpbGw6I0U1RTVFNTsiIGQ9Ik0xMC42NiwzNC43M0gwVjI0LjU4TDEwLjY2LDM0LjczeiIvPiYjeGE7CQkJPC9nPiYjeGE7CQkJPGcgaWQ9InNoYXBlMzAyMi00MSIgdHJhbnNmb3JtPSJ0cmFuc2xhdGUoMS4wMTUzOCwtMS4wMTUzOCkiPiYjeGE7CQkJCTx0aXRsZSBpZD0idGl0bGU1NTg1MCI+cmVjdDE1OTAyPC90aXRsZT4mI3hhOwkJCQk8cmVjdCBpZD0icmVjdDU1ODUyIiB4PSIwIiB5PSI0LjI3IiBzdHlsZT0iZmlsbDojRkZGRkZGOyIgd2lkdGg9IjEyLjE4IiBoZWlnaHQ9IjMwLjQ2Ii8+JiN4YTsJCQk8L2c+JiN4YTsJCQk8ZyBpZD0ic2hhcGUzMDIzLTQzIj4mI3hhOwkJCQk8dGl0bGUgaWQ9InRpdGxlNTU4NTUiPnBhdGgxNTkwNDwvdGl0bGU+JiN4YTsJCQkJJiN4YTsJCQkJCTxwYXRoIGlkPSJwYXRoNTU4NTciIGlua3NjYXBlOmNvbm5lY3Rvci1jdXJ2YXR1cmU9IjAiIHN0eWxlPSJmaWxsOm5vbmU7c3Ryb2tlOiM1NTZBOEE7c3Ryb2tlLXdpZHRoOjEuNTtzdHJva2UtbWl0ZXJsaW1pdDozOyIgZD0iICAgICAgTTEzLjE0LDMuMjVIMC41MUMwLjIzLDMuMjUsMCwzLjQ4LDAsMy43NmMwLDAsMCwwLDAsMGwwLDMwLjQ2YzAsMC4yOCwwLjIzLDAuNTEsMC41MSwwLjUxbDIyLjM0LDBjMC4yOCwwLDAuNTEtMC4yMywwLjUxLTAuNTEgICAgICBsLTAuMDEtMjEuMTNMMTMuMTQsMy4yNXoiLz4mI3hhOwkJCTwvZz4mI3hhOwkJCTxnIGlkPSJzaGFwZTMwMjQtNDUiIHRyYW5zZm9ybT0idHJhbnNsYXRlKDAuNTA3NjkyLC0wLjUwNzY5MikiPiYjeGE7CQkJCTx0aXRsZSBpZD0idGl0bGU1NTg2MCI+cmVjdDE1OTA2PC90aXRsZT4mI3hhOwkJCQk8cmVjdCBpZD0icmVjdDU1ODYyIiB4PSIwIiB5PSI0LjI3IiBzdHlsZT0iZmlsbDojRTVFNUU1OyIgd2lkdGg9IjguMTIiIGhlaWdodD0iMzAuNDYiLz4mI3hhOwkJCTwvZz4mI3hhOwkJCTxnIGlkPSJzaGFwZTMwMjUtNDciIHRyYW5zZm9ybT0idHJhbnNsYXRlKDEzLjIsLTIxLjU3NjkpIj4mI3hhOwkJCQk8dGl0bGUgaWQ9InRpdGxlNTU4NjUiPnBvbHlsaW5lMTU5MDg8L3RpdGxlPiYjeGE7CQkJCTxwYXRoIGlkPSJwYXRoNTU4NjciIGlua3NjYXBlOmNvbm5lY3Rvci1jdXJ2YXR1cmU9IjAiIHN0eWxlPSJmaWxsOm5vbmU7IiBkPSJNMCwyNC41OHYxMC4xNWgxMC42NkwwLDI0LjU4eiIvPiYjeGE7CQkJCSYjeGE7CQkJCQk8cGF0aCBpZD0icGF0aDU1ODY5IiBpbmtzY2FwZTpjb25uZWN0b3ItY3VydmF0dXJlPSIwIiBzdHlsZT0iZmlsbDpub25lO3N0cm9rZTojNTU2QThBO3N0cm9rZS13aWR0aDoxLjU7c3Ryb2tlLW1pdGVybGltaXQ6MzsiIGQ9IiAgICAgIE0wLDI0LjU4djEwLjE1aDEwLjY2Ii8+JiN4YTsJCQk8L2c+JiN4YTsJCTwvZz4mI3hhOwkJPGcgaWQ9Imdyb3VwMzAyNi01MCIgdHJhbnNmb3JtPSJ0cmFuc2xhdGUoMTIuODA0NCkiPiYjeGE7CQkJPHRpdGxlIGlkPSJ0aXRsZTU1ODczIj5nMTU5MTAuMzc5NDg8L3RpdGxlPiYjeGE7CQkJPGcgaWQ9InNoYXBlMzAyNy01MSIgdHJhbnNmb3JtPSJ0cmFuc2xhdGUoMTMuMiwtMjEuODMwOCkiPiYjeGE7CQkJCTx0aXRsZSBpZD0idGl0bGU1NTg3NSI+cG9seWdvbjE1OTAwPC90aXRsZT4mI3hhOwkJCQk8cGF0aCBpZD0icGF0aDU1ODc3IiBpbmtzY2FwZTpjb25uZWN0b3ItY3VydmF0dXJlPSIwIiBzdHlsZT0iZmlsbDojRTVFNUU1OyIgZD0iTTEwLjY2LDM0LjczSDBWMjQuNThMMTAuNjYsMzQuNzN6Ii8+JiN4YTsJCQk8L2c+JiN4YTsJCQk8ZyBpZD0ic2hhcGUzMDI4LTUzIiB0cmFuc2Zvcm09InRyYW5zbGF0ZSgxLjAxNTM4LC0xLjAxNTM4KSI+JiN4YTsJCQkJPHRpdGxlIGlkPSJ0aXRsZTU1ODgwIj5yZWN0MTU5MDI8L3RpdGxlPiYjeGE7CQkJCTxyZWN0IGlkPSJyZWN0NTU4ODIiIHg9IjAiIHk9IjQuMjciIHN0eWxlPSJmaWxsOiNGRkZGRkY7IiB3aWR0aD0iMTIuMTgiIGhlaWdodD0iMzAuNDYiLz4mI3hhOwkJCTwvZz4mI3hhOwkJCTxnIGlkPSJzaGFwZTMwMjktNTUiPiYjeGE7CQkJCTx0aXRsZSBpZD0idGl0bGU1NTg4NSI+cGF0aDE1OTA0PC90aXRsZT4mI3hhOwkJCQkmI3hhOwkJCQkJPHBhdGggaWQ9InBhdGg1NTg4NyIgaW5rc2NhcGU6Y29ubmVjdG9yLWN1cnZhdHVyZT0iMCIgc3R5bGU9ImZpbGw6bm9uZTtzdHJva2U6IzU1NkE4QTtzdHJva2Utd2lkdGg6MS41O3N0cm9rZS1taXRlcmxpbWl0OjM7IiBkPSIgICAgICBNMTMuMTQsMy4yNUgwLjUxQzAuMjMsMy4yNSwwLDMuNDgsMCwzLjc2YzAsMCwwLDAsMCwwbDAsMzAuNDZjMCwwLjI4LDAuMjMsMC41MSwwLjUxLDAuNTFsMjIuMzQsMGMwLjI4LDAsMC41MS0wLjIzLDAuNTEtMC41MSAgICAgIGwtMC4wMS0yMS4xM0wxMy4xNCwzLjI1eiIvPiYjeGE7CQkJPC9nPiYjeGE7CQkJPGcgaWQ9InNoYXBlMzAzMC01NyIgdHJhbnNmb3JtPSJ0cmFuc2xhdGUoMC41MDc2OTIsLTAuNTA3NjkyKSI+JiN4YTsJCQkJPHRpdGxlIGlkPSJ0aXRsZTU1ODkwIj5yZWN0MTU5MDY8L3RpdGxlPiYjeGE7CQkJCTxyZWN0IGlkPSJyZWN0NTU4OTIiIHg9IjAiIHk9IjQuMjciIHN0eWxlPSJmaWxsOiNFNUU1RTU7IiB3aWR0aD0iOC4xMiIgaGVpZ2h0PSIzMC40NiIvPiYjeGE7CQkJPC9nPiYjeGE7CQkJPGcgaWQ9InNoYXBlMzAzMS01OSIgdHJhbnNmb3JtPSJ0cmFuc2xhdGUoMTMuMiwtMjEuNTc2OSkiPiYjeGE7CQkJCTx0aXRsZSBpZD0idGl0bGU1NTg5NSI+cG9seWxpbmUxNTkwODwvdGl0bGU+JiN4YTsJCQkJPHBhdGggaWQ9InBhdGg1NTg5NyIgaW5rc2NhcGU6Y29ubmVjdG9yLWN1cnZhdHVyZT0iMCIgc3R5bGU9ImZpbGw6bm9uZTsiIGQ9Ik0wLDI0LjU4djEwLjE1aDEwLjY2TDAsMjQuNTh6Ii8+JiN4YTsJCQkJJiN4YTsJCQkJCTxwYXRoIGlkPSJwYXRoNTU4OTkiIGlua3NjYXBlOmNvbm5lY3Rvci1jdXJ2YXR1cmU9IjAiIHN0eWxlPSJmaWxsOm5vbmU7c3Ryb2tlOiM1NTZBOEE7c3Ryb2tlLXdpZHRoOjEuNTtzdHJva2UtbWl0ZXJsaW1pdDozOyIgZD0iICAgICAgTTAsMjQuNTh2MTAuMTVoMTAuNjYiLz4mI3hhOwkJCTwvZz4mI3hhOwkJPC9nPiYjeGE7CQk8ZyBpZD0iZ3JvdXAzMDMyLTYyIiB0cmFuc2Zvcm09InRyYW5zbGF0ZSg4LjczMzE0KSI+JiN4YTsJCQk8dGl0bGUgaWQ9InRpdGxlNTU5MDMiPmcxNTkxMC4zNzk1NDwvdGl0bGU+JiN4YTsJCQk8ZyBpZD0ic2hhcGUzMDMzLTYzIiB0cmFuc2Zvcm09InRyYW5zbGF0ZSgxMy4yLC0yMS44MzA4KSI+JiN4YTsJCQkJPHRpdGxlIGlkPSJ0aXRsZTU1OTA1Ij5wb2x5Z29uMTU5MDA8L3RpdGxlPiYjeGE7CQkJCTxwYXRoIGlkPSJwYXRoNTU5MDciIGlua3NjYXBlOmNvbm5lY3Rvci1jdXJ2YXR1cmU9IjAiIHN0eWxlPSJmaWxsOiNFNUU1RTU7IiBkPSJNMTAuNjYsMzQuNzNIMFYyNC41OEwxMC42NiwzNC43M3oiLz4mI3hhOwkJCTwvZz4mI3hhOwkJCTxnIGlkPSJzaGFwZTMwMzQtNjUiIHRyYW5zZm9ybT0idHJhbnNsYXRlKDEuMDE1MzgsLTEuMDE1MzgpIj4mI3hhOwkJCQk8dGl0bGUgaWQ9InRpdGxlNTU5MTAiPnJlY3QxNTkwMjwvdGl0bGU+JiN4YTsJCQkJPHJlY3QgaWQ9InJlY3Q1NTkxMiIgeD0iMCIgeT0iNC4yNyIgc3R5bGU9ImZpbGw6I0ZGRkZGRjsiIHdpZHRoPSIxMi4xOCIgaGVpZ2h0PSIzMC40NiIvPiYjeGE7CQkJPC9nPiYjeGE7CQkJPGcgaWQ9InNoYXBlMzAzNS02NyI+JiN4YTsJCQkJPHRpdGxlIGlkPSJ0aXRsZTU1OTE1Ij5wYXRoMTU5MDQ8L3RpdGxlPiYjeGE7CQkJCSYjeGE7CQkJCQk8cGF0aCBpZD0icGF0aDU1OTE3IiBpbmtzY2FwZTpjb25uZWN0b3ItY3VydmF0dXJlPSIwIiBzdHlsZT0iZmlsbDpub25lO3N0cm9rZTojNTU2QThBO3N0cm9rZS13aWR0aDoxLjU7c3Ryb2tlLW1pdGVybGltaXQ6MzsiIGQ9IiAgICAgIE0xMy4xNCwzLjI1SDAuNTFDMC4yMywzLjI1LDAsMy40OCwwLDMuNzZjMCwwLDAsMCwwLDBsMCwzMC40NmMwLDAuMjgsMC4yMywwLjUxLDAuNTEsMC41MWwyMi4zNCwwYzAuMjgsMCwwLjUxLTAuMjMsMC41MS0wLjUxICAgICAgbC0wLjAxLTIxLjEzTDEzLjE0LDMuMjV6Ii8+JiN4YTsJCQk8L2c+JiN4YTsJCQk8ZyBpZD0ic2hhcGUzMDM2LTY5IiB0cmFuc2Zvcm09InRyYW5zbGF0ZSgwLjUwNzY5MiwtMC41MDc2OTIpIj4mI3hhOwkJCQk8dGl0bGUgaWQ9InRpdGxlNTU5MjAiPnJlY3QxNTkwNjwvdGl0bGU+JiN4YTsJCQkJPHJlY3QgaWQ9InJlY3Q1NTkyMiIgeD0iMCIgeT0iNC4yNyIgc3R5bGU9ImZpbGw6I0U1RTVFNTsiIHdpZHRoPSI4LjEyIiBoZWlnaHQ9IjMwLjQ2Ii8+JiN4YTsJCQk8L2c+JiN4YTsJCQk8ZyBpZD0ic2hhcGUzMDM3LTcxIiB0cmFuc2Zvcm09InRyYW5zbGF0ZSgxMy4yLC0yMS41NzY5KSI+JiN4YTsJCQkJPHRpdGxlIGlkPSJ0aXRsZTU1OTI1Ij5wb2x5bGluZTE1OTA4PC90aXRsZT4mI3hhOwkJCQk8cGF0aCBpZD0icGF0aDU1OTI3IiBpbmtzY2FwZTpjb25uZWN0b3ItY3VydmF0dXJlPSIwIiBzdHlsZT0iZmlsbDpub25lOyIgZD0iTTAsMjQuNTh2MTAuMTVoMTAuNjZMMCwyNC41OHoiLz4mI3hhOwkJCQkmI3hhOwkJCQkJPHBhdGggaWQ9InBhdGg1NTkyOSIgaW5rc2NhcGU6Y29ubmVjdG9yLWN1cnZhdHVyZT0iMCIgc3R5bGU9ImZpbGw6bm9uZTtzdHJva2U6IzU1NkE4QTtzdHJva2Utd2lkdGg6MS41O3N0cm9rZS1taXRlcmxpbWl0OjM7IiBkPSIgICAgICBNMCwyNC41OHYxMC4xNWgxMC42NiIvPiYjeGE7CQkJPC9nPiYjeGE7CQk8L2c+JiN4YTsJCTxnIGlkPSJncm91cDMwMzgtNzQiIHRyYW5zZm9ybT0idHJhbnNsYXRlKDQuNzU5ODQpIj4mI3hhOwkJCTx0aXRsZSBpZD0idGl0bGU1NTkzMyI+ZzE1OTEwPC90aXRsZT4mI3hhOwkJCTxnIGlkPSJzaGFwZTMwMzktNzUiIHRyYW5zZm9ybT0idHJhbnNsYXRlKDEzLjIsLTIxLjgzMDgpIj4mI3hhOwkJCQk8dGl0bGUgaWQ9InRpdGxlNTU5MzUiPnBvbHlnb24xNTkwMDwvdGl0bGU+JiN4YTsJCQkJPHBhdGggaWQ9InBhdGg1NTkzNyIgaW5rc2NhcGU6Y29ubmVjdG9yLWN1cnZhdHVyZT0iMCIgc3R5bGU9ImZpbGw6I0U1RTVFNTsiIGQ9Ik0xMC42NiwzNC43M0gwVjI0LjU4TDEwLjY2LDM0LjczeiIvPiYjeGE7CQkJPC9nPiYjeGE7CQkJPGcgaWQ9InNoYXBlMzA0MC03NyIgdHJhbnNmb3JtPSJ0cmFuc2xhdGUoMS4wMTUzOCwtMS4wMTUzOCkiPiYjeGE7CQkJCTx0aXRsZSBpZD0idGl0bGU1NTk0MCI+cmVjdDE1OTAyPC90aXRsZT4mI3hhOwkJCQk8cmVjdCBpZD0icmVjdDU1OTQyIiB4PSIwIiB5PSI0LjI3IiBzdHlsZT0iZmlsbDojRkZGRkZGOyIgd2lkdGg9IjEyLjE4IiBoZWlnaHQ9IjMwLjQ2Ii8+JiN4YTsJCQk8L2c+JiN4YTsJCQk8ZyBpZD0ic2hhcGUzMDQxLTc5Ij4mI3hhOwkJCQk8dGl0bGUgaWQ9InRpdGxlNTU5NDUiPnBhdGgxNTkwNDwvdGl0bGU+JiN4YTsJCQkJJiN4YTsJCQkJCTxwYXRoIGlkPSJwYXRoNTU5NDciIGlua3NjYXBlOmNvbm5lY3Rvci1jdXJ2YXR1cmU9IjAiIHN0eWxlPSJmaWxsOm5vbmU7c3Ryb2tlOiM1NTZBOEE7c3Ryb2tlLXdpZHRoOjEuNTtzdHJva2UtbWl0ZXJsaW1pdDozOyIgZD0iICAgICAgTTEzLjE0LDMuMjVIMC41MUMwLjIzLDMuMjUsMCwzLjQ4LDAsMy43NmMwLDAsMCwwLDAsMGwwLDMwLjQ2YzAsMC4yOCwwLjIzLDAuNTEsMC41MSwwLjUxbDIyLjM0LDBjMC4yOCwwLDAuNTEtMC4yMywwLjUxLTAuNTEgICAgICBsLTAuMDEtMjEuMTNMMTMuMTQsMy4yNXoiLz4mI3hhOwkJCTwvZz4mI3hhOwkJCTxnIGlkPSJzaGFwZTMwNDItODEiIHRyYW5zZm9ybT0idHJhbnNsYXRlKDAuNTA3NjkyLC0wLjUwNzY5MikiPiYjeGE7CQkJCTx0aXRsZSBpZD0idGl0bGU1NTk1MCI+cmVjdDE1OTA2PC90aXRsZT4mI3hhOwkJCQk8cmVjdCBpZD0icmVjdDU1OTUyIiB4PSIwIiB5PSI0LjI3IiBzdHlsZT0iZmlsbDojRTVFNUU1OyIgd2lkdGg9IjguMTIiIGhlaWdodD0iMzAuNDYiLz4mI3hhOwkJCTwvZz4mI3hhOwkJCTxnIGlkPSJzaGFwZTMwNDMtODMiIHRyYW5zZm9ybT0idHJhbnNsYXRlKDEzLjIsLTIxLjU3NjkpIj4mI3hhOwkJCQk8dGl0bGUgaWQ9InRpdGxlNTU5NTUiPnBvbHlsaW5lMTU5MDg8L3RpdGxlPiYjeGE7CQkJCTxwYXRoIGlkPSJwYXRoNTU5NTciIGlua3NjYXBlOmNvbm5lY3Rvci1jdXJ2YXR1cmU9IjAiIHN0eWxlPSJmaWxsOm5vbmU7IiBkPSJNMCwyNC41OHYxMC4xNWgxMC42NkwwLDI0LjU4eiIvPiYjeGE7CQkJCSYjeGE7CQkJCQk8cGF0aCBpZD0icGF0aDU1OTU5IiBpbmtzY2FwZTpjb25uZWN0b3ItY3VydmF0dXJlPSIwIiBzdHlsZT0iZmlsbDpub25lO3N0cm9rZTojNTU2QThBO3N0cm9rZS13aWR0aDoxLjU7c3Ryb2tlLW1pdGVybGltaXQ6MzsiIGQ9IiAgICAgIE0wLDI0LjU4djEwLjE1aDEwLjY2Ii8+JiN4YTsJCQk8L2c+JiN4YTsJCTwvZz4mI3hhOwkJPGcgaWQ9Imdyb3VwMzA0NC04NiI+JiN4YTsJCQk8dGl0bGUgaWQ9InRpdGxlNTU5NjMiPmcxNTkzMDwvdGl0bGU+JiN4YTsJCQk8ZyBpZD0ic2hhcGUzMDQ1LTg3Ij4mI3hhOwkJCQk8dGl0bGUgaWQ9InRpdGxlNTU5NjUiPnBvbHlnb24xNTkxMjwvdGl0bGU+JiN4YTsJCQkJPHBhdGggaWQ9InBhdGg1NTk2NyIgaW5rc2NhcGU6Y29ubmVjdG9yLWN1cnZhdHVyZT0iMCIgc3R5bGU9ImZpbGw6I0ZGRkZGRjsiIGQ9Ik0yMy44NiwzNC43M0gwVjIuNzVoMTMuMzVsMTAuNTEsMTBWMzQuNzN6Ii8+JiN4YTsJCQk8L2c+JiN4YTsJCQk8ZyBpZD0ic2hhcGUzMDQ2LTg5IiB0cmFuc2Zvcm09InRyYW5zbGF0ZSgxMy4yLC0yMS44MzA4KSI+JiN4YTsJCQkJPHRpdGxlIGlkPSJ0aXRsZTU1OTcwIj5wb2x5Z29uMTU5MTQ8L3RpdGxlPiYjeGE7CQkJCTxwYXRoIGlkPSJwYXRoNTU5NzIiIGlua3NjYXBlOmNvbm5lY3Rvci1jdXJ2YXR1cmU9IjAiIHN0eWxlPSJmaWxsOiM1NUQyRjY7IiBkPSJNMTAuNjYsMzQuNzNIMFYyNC41OEwxMC42NiwzNC43M3oiLz4mI3hhOwkJCTwvZz4mI3hhOwkJCTxnIGlkPSJzaGFwZTMwNDctOTEiPiYjeGE7CQkJCTx0aXRsZSBpZD0idGl0bGU1NTk3NSI+cGF0aDE1OTE2PC90aXRsZT4mI3hhOwkJCQkmI3hhOwkJCQkJPHBhdGggaWQ9InBhdGg1NTk3NyIgaW5rc2NhcGU6Y29ubmVjdG9yLWN1cnZhdHVyZT0iMCIgc3R5bGU9ImZpbGw6bm9uZTtzdHJva2U6IzU1NkE4QTtzdHJva2Utd2lkdGg6MS41O3N0cm9rZS1taXRlcmxpbWl0OjM7IiBkPSIgICAgICBNMTMuMzksMy4yNUgwLjc0QzAuNDcsMy4yNSwwLDMuMjIsMCwzLjQ5djMwLjQ5YzAuMDksMC4zNywwLjM3LDAuNjYsMC43NCwwLjc1aDIyLjM4YzAuMjcsMCwwLjIzLTAuNDcsMC4yMy0wLjc1VjEyLjgzICAgICAgTDEzLjM5LDMuMjV6Ii8+JiN4YTsJCQk8L2c+JiN4YTsJCQk8ZyBpZD0ic2hhcGUzMDQ4LTkzIiB0cmFuc2Zvcm09InRyYW5zbGF0ZSgwLjUwNzY5MiwtMC41MDc2OTIpIj4mI3hhOwkJCQk8dGl0bGUgaWQ9InRpdGxlNTU5ODAiPnJlY3QxNTkxODwvdGl0bGU+JiN4YTsJCQkJPHJlY3QgaWQ9InJlY3Q1NTk4MiIgeD0iMCIgeT0iNC4yNyIgc3R5bGU9ImZpbGw6I0U1RTVFNTsiIHdpZHRoPSI4LjEyIiBoZWlnaHQ9IjMwLjQ2Ii8+JiN4YTsJCQk8L2c+JiN4YTsJCQk8ZyBpZD0ic2hhcGUzMDQ5LTk1IiB0cmFuc2Zvcm09InRyYW5zbGF0ZSgxMi42OTIzLC0yMS4zMjMxKSI+JiN4YTsJCQkJPHRpdGxlIGlkPSJ0aXRsZTU1OTg1Ij5wb2x5bGluZTE1OTIwPC90aXRsZT4mI3hhOwkJCQk8cGF0aCBpZD0icGF0aDU1OTg3IiBpbmtzY2FwZTpjb25uZWN0b3ItY3VydmF0dXJlPSIwIiBzdHlsZT0iZmlsbDpub25lOyIgZD0iTTAsMjQuNTh2MTAuMTVoMTAuNjZMMCwyNC41OHoiLz4mI3hhOwkJCQkmI3hhOwkJCQkJPHBhdGggaWQ9InBhdGg1NTk4OSIgaW5rc2NhcGU6Y29ubmVjdG9yLWN1cnZhdHVyZT0iMCIgc3R5bGU9ImZpbGw6bm9uZTtzdHJva2U6IzU1NkE4QTtzdHJva2Utd2lkdGg6MS41O3N0cm9rZS1taXRlcmxpbWl0OjM7IiBkPSIgICAgICBNMCwyNC41OHYxMC4xNWgxMC42NiIvPiYjeGE7CQkJPC9nPiYjeGE7CQkJPGcgaWQ9InNoYXBlMzA1MC05OCIgdHJhbnNmb3JtPSJ0cmFuc2xhdGUoMy41NTM4NSwtMjAuODE1NCkiPiYjeGE7CQkJCTx0aXRsZSBpZD0idGl0bGU1NTk5MiI+bGluZTE1OTIyPC90aXRsZT4mI3hhOwkJCQkmI3hhOwkJCQkJPHBhdGggaWQ9InBhdGg1NTk5NCIgaW5rc2NhcGU6Y29ubmVjdG9yLWN1cnZhdHVyZT0iMCIgc3R5bGU9ImZpbGw6bm9uZTtzdHJva2U6I0E3QTlBQztzdHJva2Utd2lkdGg6MS41O3N0cm9rZS1taXRlcmxpbWl0OjM7IiBkPSIgICAgICBNMCwzNC43M2g2LjYiLz4mI3hhOwkJCTwvZz4mI3hhOwkJCTxnIGlkPSJzaGFwZTMwNTEtMTAxIiB0cmFuc2Zvcm09InRyYW5zbGF0ZSgzLjU1Mzg1LC0xNi4yNDYyKSI+JiN4YTsJCQkJPHRpdGxlIGlkPSJ0aXRsZTU1OTk3Ij5saW5lMTU5MjQ8L3RpdGxlPiYjeGE7CQkJCSYjeGE7CQkJCQk8cGF0aCBpZD0icGF0aDU1OTk5IiBpbmtzY2FwZTpjb25uZWN0b3ItY3VydmF0dXJlPSIwIiBzdHlsZT0iZmlsbDpub25lO3N0cm9rZTojQTdBOUFDO3N0cm9rZS13aWR0aDoxLjU7c3Ryb2tlLW1pdGVybGltaXQ6MzsiIGQ9IiAgICAgIE0wLDM0LjczaDE2LjI1Ii8+JiN4YTsJCQk8L2c+JiN4YTsJCQk8ZyBpZD0ic2hhcGUzMDUyLTEwNCIgdHJhbnNmb3JtPSJ0cmFuc2xhdGUoMy41NTM4NSwtMTEuNjc2OSkiPiYjeGE7CQkJCTx0aXRsZSBpZD0idGl0bGU1NjAwMiI+bGluZTE1OTI2PC90aXRsZT4mI3hhOwkJCQkmI3hhOwkJCQkJPHBhdGggaWQ9InBhdGg1NjAwNCIgaW5rc2NhcGU6Y29ubmVjdG9yLWN1cnZhdHVyZT0iMCIgc3R5bGU9ImZpbGw6bm9uZTtzdHJva2U6I0E3QTlBQztzdHJva2Utd2lkdGg6MS41O3N0cm9rZS1taXRlcmxpbWl0OjM7IiBkPSIgICAgICBNMCwzNC43M2gxNi4yNSIvPiYjeGE7CQkJPC9nPiYjeGE7CQkJPGcgaWQ9InNoYXBlMzA1My0xMDciIHRyYW5zZm9ybT0idHJhbnNsYXRlKDMuNTUzODUsLTcuMTA3NjkpIj4mI3hhOwkJCQk8dGl0bGUgaWQ9InRpdGxlNTYwMDciPmxpbmUxNTkyODwvdGl0bGU+JiN4YTsJCQkJJiN4YTsJCQkJCTxwYXRoIGlkPSJwYXRoNTYwMDkiIGlua3NjYXBlOmNvbm5lY3Rvci1jdXJ2YXR1cmU9IjAiIHN0eWxlPSJmaWxsOm5vbmU7c3Ryb2tlOiNBN0E5QUM7c3Ryb2tlLXdpZHRoOjEuNTtzdHJva2UtbWl0ZXJsaW1pdDozOyIgZD0iICAgICAgTTAsMzQuNzNoMTYuMjUiLz4mI3hhOwkJCTwvZz4mI3hhOwkJPC9nPiYjeGE7CTwvZz4mI3hhOzwvZz4mI3hhOzwvc3ZnPg==;fontColor=#FFFFFF;fontSize=14;" vertex="1" parent="1">
          <mxGeometry x="446.37" y="465" width="72.27" height="45" as="geometry" />
        </mxCell>
        <mxCell id="iBqICV7l6kwAUIpkYqQP-32" style="edgeStyle=orthogonalEdgeStyle;rounded=0;orthogonalLoop=1;jettySize=auto;html=1;exitX=0.5;exitY=1;exitDx=0;exitDy=0;entryX=0.5;entryY=0;entryDx=0;entryDy=0;strokeColor=#E6E6E6;" edge="1" parent="1" source="iBqICV7l6kwAUIpkYqQP-33" target="iBqICV7l6kwAUIpkYqQP-35">
          <mxGeometry relative="1" as="geometry" />
        </mxCell>
        <mxCell id="iBqICV7l6kwAUIpkYqQP-33" value="Transform" style="shape=image;verticalLabelPosition=bottom;labelBackgroundColor=none;verticalAlign=top;aspect=fixed;imageAspect=0;image=data:image/svg+xml,PHN2ZyB4bWxuczpjYz0iaHR0cDovL2NyZWF0aXZlY29tbW9ucy5vcmcvbnMjIiB4bWxuczpkYz0iaHR0cDovL3B1cmwub3JnL2RjL2VsZW1lbnRzLzEuMS8iIHhtbG5zOmlua3NjYXBlPSJodHRwOi8vd3d3Lmlua3NjYXBlLm9yZy9uYW1lc3BhY2VzL2lua3NjYXBlIiB4bWxuczpyZGY9Imh0dHA6Ly93d3cudzMub3JnLzE5OTkvMDIvMjItcmRmLXN5bnRheC1ucyMiIHhtbG5zOnNvZGlwb2RpPSJodHRwOi8vc29kaXBvZGkuc291cmNlZm9yZ2UubmV0L0RURC9zb2RpcG9kaS0wLmR0ZCIgeG1sbnM6c3ZnPSJodHRwOi8vd3d3LnczLm9yZy8yMDAwL3N2ZyIgeG1sbnM9Imh0dHA6Ly93d3cudzMub3JnLzIwMDAvc3ZnIiB4bWxuczp4bGluaz0iaHR0cDovL3d3dy53My5vcmcvMTk5OS94bGluayIgdmVyc2lvbj0iMS4xIiBpZD0ic3ZnNTYwMTYiIGlua3NjYXBlOnZlcnNpb249IjAuOTIuMyAoMjQwNTU0NiwgMjAxOC0wMy0xMSkiIHNvZGlwb2RpOmRvY25hbWU9ImV0bC5zdmciIHg9IjBweCIgeT0iMHB4IiB2aWV3Qm94PSIwIDAgNTMuMzYgMzIuOTgiIHN0eWxlPSJlbmFibGUtYmFja2dyb3VuZDpuZXcgMCAwIDUzLjM2IDMyLjk4OyIgeG1sOnNwYWNlPSJwcmVzZXJ2ZSI+JiN4YTs8c29kaXBvZGk6bmFtZWR2aWV3IGJvcmRlcmNvbG9yPSIjNjY2NjY2IiBib3JkZXJvcGFjaXR5PSIxIiBmaXQtbWFyZ2luLWJvdHRvbT0iMCIgZml0LW1hcmdpbi1sZWZ0PSIwIiBmaXQtbWFyZ2luLXJpZ2h0PSIwIiBmaXQtbWFyZ2luLXRvcD0iMCIgZ3JpZHRvbGVyYW5jZT0iMTAiIGd1aWRldG9sZXJhbmNlPSIxMCIgaWQ9Im5hbWVkdmlldzU2MDE4IiBpbmtzY2FwZTpjdXJyZW50LWxheWVyPSJzdmc1NjAxNiIgaW5rc2NhcGU6Y3g9IjM1Ljk5NTUwOSIgaW5rc2NhcGU6Y3k9IjEzLjU4MDkxMSIgaW5rc2NhcGU6cGFnZW9wYWNpdHk9IjAiIGlua3NjYXBlOnBhZ2VzaGFkb3c9IjIiIGlua3NjYXBlOndpbmRvdy1oZWlnaHQ9IjEwMTciIGlua3NjYXBlOndpbmRvdy1tYXhpbWl6ZWQ9IjEiIGlua3NjYXBlOndpbmRvdy13aWR0aD0iMTkyMCIgaW5rc2NhcGU6d2luZG93LXg9Ii04IiBpbmtzY2FwZTp3aW5kb3cteT0iLTgiIGlua3NjYXBlOnpvb209IjkuMzYxMjkyIiBvYmplY3R0b2xlcmFuY2U9IjEwIiBwYWdlY29sb3I9IiNmZmZmZmYiIHNob3dncmlkPSJmYWxzZSI+JiN4YTsJPC9zb2RpcG9kaTpuYW1lZHZpZXc+JiN4YTs8ZyBpZD0iZzU2MDE0IiB0cmFuc2Zvcm09InRyYW5zbGF0ZSgtMC43NSwtMC45OTY2MTgyMSkiPiYjeGE7CTx0aXRsZSBpZD0idGl0bGU1NTc0OSI+UGFnZS0xPC90aXRsZT4mI3hhOwk8ZyBpZD0iZ3JvdXAzMDAxLTEiIHRyYW5zZm9ybT0idHJhbnNsYXRlKDEuNSwtMS41KSI+JiN4YTsJCTx0aXRsZSBpZD0idGl0bGU1NTc1MSI+RVRMPC90aXRsZT4mI3hhOwkJPGcgaWQ9Imdyb3VwMzAwMi0yIiB0cmFuc2Zvcm09InRyYW5zbGF0ZSgyOC41MDQzKSI+JiN4YTsJCQk8dGl0bGUgaWQ9InRpdGxlNTU3NTMiPmcxNTkxMC4zNzkyNDwvdGl0bGU+JiN4YTsJCQk8ZyBpZD0ic2hhcGUzMDAzLTMiIHRyYW5zZm9ybT0idHJhbnNsYXRlKDEzLjIsLTIxLjgzMDgpIj4mI3hhOwkJCQk8dGl0bGUgaWQ9InRpdGxlNTU3NTUiPnBvbHlnb24xNTkwMDwvdGl0bGU+JiN4YTsJCQkJPHBhdGggaWQ9InBhdGg1NTc1NyIgaW5rc2NhcGU6Y29ubmVjdG9yLWN1cnZhdHVyZT0iMCIgc3R5bGU9ImZpbGw6I0U1RTVFNTsiIGQ9Ik0xMC42NiwzNC43M0gwVjI0LjU4TDEwLjY2LDM0LjczeiIvPiYjeGE7CQkJPC9nPiYjeGE7CQkJPGcgaWQ9InNoYXBlMzAwNC01IiB0cmFuc2Zvcm09InRyYW5zbGF0ZSgxLjAxNTM4LC0xLjAxNTM4KSI+JiN4YTsJCQkJPHRpdGxlIGlkPSJ0aXRsZTU1NzYwIj5yZWN0MTU5MDI8L3RpdGxlPiYjeGE7CQkJCTxyZWN0IGlkPSJyZWN0NTU3NjIiIHg9IjAiIHk9IjQuMjciIHN0eWxlPSJmaWxsOiNGRkZGRkY7IiB3aWR0aD0iMTIuMTgiIGhlaWdodD0iMzAuNDYiLz4mI3hhOwkJCTwvZz4mI3hhOwkJCTxnIGlkPSJzaGFwZTMwMDUtNyI+JiN4YTsJCQkJPHRpdGxlIGlkPSJ0aXRsZTU1NzY1Ij5wYXRoMTU5MDQ8L3RpdGxlPiYjeGE7CQkJCSYjeGE7CQkJCQk8cGF0aCBpZD0icGF0aDU1NzY3IiBpbmtzY2FwZTpjb25uZWN0b3ItY3VydmF0dXJlPSIwIiBzdHlsZT0iZmlsbDpub25lO3N0cm9rZTojNTU2QThBO3N0cm9rZS13aWR0aDoxLjU7c3Ryb2tlLW1pdGVybGltaXQ6MzsiIGQ9IiAgICAgIE0xMy4xNCwzLjI1SDAuNTFDMC4yMywzLjI1LDAsMy40OCwwLDMuNzZjMCwwLDAsMCwwLDBsMCwzMC40NmMwLDAuMjgsMC4yMywwLjUxLDAuNTEsMC41MWwyMi4zNCwwYzAuMjgsMCwwLjUxLTAuMjMsMC41MS0wLjUxICAgICAgbC0wLjAxLTIxLjEzTDEzLjE0LDMuMjV6Ii8+JiN4YTsJCQk8L2c+JiN4YTsJCQk8ZyBpZD0ic2hhcGUzMDA2LTkiIHRyYW5zZm9ybT0idHJhbnNsYXRlKDAuNTA3NjkyLC0wLjUwNzY5MikiPiYjeGE7CQkJCTx0aXRsZSBpZD0idGl0bGU1NTc3MCI+cmVjdDE1OTA2PC90aXRsZT4mI3hhOwkJCQk8cmVjdCBpZD0icmVjdDU1NzcyIiB4PSIwIiB5PSI0LjI3IiBzdHlsZT0iZmlsbDojRTVFNUU1OyIgd2lkdGg9IjguMTIiIGhlaWdodD0iMzAuNDYiLz4mI3hhOwkJCTwvZz4mI3hhOwkJCTxnIGlkPSJzaGFwZTMwMDctMTEiIHRyYW5zZm9ybT0idHJhbnNsYXRlKDEzLjIsLTIxLjU3NjkpIj4mI3hhOwkJCQk8dGl0bGUgaWQ9InRpdGxlNTU3NzUiPnBvbHlsaW5lMTU5MDg8L3RpdGxlPiYjeGE7CQkJCTxwYXRoIGlkPSJwYXRoNTU3NzciIGlua3NjYXBlOmNvbm5lY3Rvci1jdXJ2YXR1cmU9IjAiIHN0eWxlPSJmaWxsOm5vbmU7IiBkPSJNMCwyNC41OHYxMC4xNWgxMC42NkwwLDI0LjU4eiIvPiYjeGE7CQkJCSYjeGE7CQkJCQk8cGF0aCBpZD0icGF0aDU1Nzc5IiBpbmtzY2FwZTpjb25uZWN0b3ItY3VydmF0dXJlPSIwIiBzdHlsZT0iZmlsbDpub25lO3N0cm9rZTojNTU2QThBO3N0cm9rZS13aWR0aDoxLjU7c3Ryb2tlLW1pdGVybGltaXQ6MzsiIGQ9IiAgICAgIE0wLDI0LjU4djEwLjE1aDEwLjY2Ii8+JiN4YTsJCQk8L2c+JiN4YTsJCTwvZz4mI3hhOwkJPGcgaWQ9Imdyb3VwMzAwOC0xNCIgdHJhbnNmb3JtPSJ0cmFuc2xhdGUoMjQuMjM0NCkiPiYjeGE7CQkJPHRpdGxlIGlkPSJ0aXRsZTU1NzgzIj5nMTU5MTAuMzc5MzA8L3RpdGxlPiYjeGE7CQkJPGcgaWQ9InNoYXBlMzAwOS0xNSIgdHJhbnNmb3JtPSJ0cmFuc2xhdGUoMTMuMiwtMjEuODMwOCkiPiYjeGE7CQkJCTx0aXRsZSBpZD0idGl0bGU1NTc4NSI+cG9seWdvbjE1OTAwPC90aXRsZT4mI3hhOwkJCQk8cGF0aCBpZD0icGF0aDU1Nzg3IiBpbmtzY2FwZTpjb25uZWN0b3ItY3VydmF0dXJlPSIwIiBzdHlsZT0iZmlsbDojRTVFNUU1OyIgZD0iTTEwLjY2LDM0LjczSDBWMjQuNThMMTAuNjYsMzQuNzN6Ii8+JiN4YTsJCQk8L2c+JiN4YTsJCQk8ZyBpZD0ic2hhcGUzMDEwLTE3IiB0cmFuc2Zvcm09InRyYW5zbGF0ZSgxLjAxNTM4LC0xLjAxNTM4KSI+JiN4YTsJCQkJPHRpdGxlIGlkPSJ0aXRsZTU1NzkwIj5yZWN0MTU5MDI8L3RpdGxlPiYjeGE7CQkJCTxyZWN0IGlkPSJyZWN0NTU3OTIiIHg9IjAiIHk9IjQuMjciIHN0eWxlPSJmaWxsOiNGRkZGRkY7IiB3aWR0aD0iMTIuMTgiIGhlaWdodD0iMzAuNDYiLz4mI3hhOwkJCTwvZz4mI3hhOwkJCTxnIGlkPSJzaGFwZTMwMTEtMTkiPiYjeGE7CQkJCTx0aXRsZSBpZD0idGl0bGU1NTc5NSI+cGF0aDE1OTA0PC90aXRsZT4mI3hhOwkJCQkmI3hhOwkJCQkJPHBhdGggaWQ9InBhdGg1NTc5NyIgaW5rc2NhcGU6Y29ubmVjdG9yLWN1cnZhdHVyZT0iMCIgc3R5bGU9ImZpbGw6bm9uZTtzdHJva2U6IzU1NkE4QTtzdHJva2Utd2lkdGg6MS41O3N0cm9rZS1taXRlcmxpbWl0OjM7IiBkPSIgICAgICBNMTMuMTQsMy4yNUgwLjUxQzAuMjMsMy4yNSwwLDMuNDgsMCwzLjc2YzAsMCwwLDAsMCwwbDAsMzAuNDZjMCwwLjI4LDAuMjMsMC41MSwwLjUxLDAuNTFsMjIuMzQsMGMwLjI4LDAsMC41MS0wLjIzLDAuNTEtMC41MSAgICAgIGwtMC4wMS0yMS4xM0wxMy4xNCwzLjI1eiIvPiYjeGE7CQkJPC9nPiYjeGE7CQkJPGcgaWQ9InNoYXBlMzAxMi0yMSIgdHJhbnNmb3JtPSJ0cmFuc2xhdGUoMC41MDc2OTIsLTAuNTA3NjkyKSI+JiN4YTsJCQkJPHRpdGxlIGlkPSJ0aXRsZTU1ODAwIj5yZWN0MTU5MDY8L3RpdGxlPiYjeGE7CQkJCTxyZWN0IGlkPSJyZWN0NTU4MDIiIHg9IjAiIHk9IjQuMjciIHN0eWxlPSJmaWxsOiNFNUU1RTU7IiB3aWR0aD0iOC4xMiIgaGVpZ2h0PSIzMC40NiIvPiYjeGE7CQkJPC9nPiYjeGE7CQkJPGcgaWQ9InNoYXBlMzAxMy0yMyIgdHJhbnNmb3JtPSJ0cmFuc2xhdGUoMTMuMiwtMjEuNTc2OSkiPiYjeGE7CQkJCTx0aXRsZSBpZD0idGl0bGU1NTgwNSI+cG9seWxpbmUxNTkwODwvdGl0bGU+JiN4YTsJCQkJPHBhdGggaWQ9InBhdGg1NTgwNyIgaW5rc2NhcGU6Y29ubmVjdG9yLWN1cnZhdHVyZT0iMCIgc3R5bGU9ImZpbGw6bm9uZTsiIGQ9Ik0wLDI0LjU4djEwLjE1aDEwLjY2TDAsMjQuNTh6Ii8+JiN4YTsJCQkJJiN4YTsJCQkJCTxwYXRoIGlkPSJwYXRoNTU4MDkiIGlua3NjYXBlOmNvbm5lY3Rvci1jdXJ2YXR1cmU9IjAiIHN0eWxlPSJmaWxsOm5vbmU7c3Ryb2tlOiM1NTZBOEE7c3Ryb2tlLXdpZHRoOjEuNTtzdHJva2UtbWl0ZXJsaW1pdDozOyIgZD0iICAgICAgTTAsMjQuNTh2MTAuMTVoMTAuNjYiLz4mI3hhOwkJCTwvZz4mI3hhOwkJPC9nPiYjeGE7CQk8ZyBpZD0iZ3JvdXAzMDE0LTI2IiB0cmFuc2Zvcm09InRyYW5zbGF0ZSgyMC41NzI4KSI+JiN4YTsJCQk8dGl0bGUgaWQ9InRpdGxlNTU4MTMiPmcxNTkxMC4zNzkzNjwvdGl0bGU+JiN4YTsJCQk8ZyBpZD0ic2hhcGUzMDE1LTI3IiB0cmFuc2Zvcm09InRyYW5zbGF0ZSgxMy4yLC0yMS44MzA4KSI+JiN4YTsJCQkJPHRpdGxlIGlkPSJ0aXRsZTU1ODE1Ij5wb2x5Z29uMTU5MDA8L3RpdGxlPiYjeGE7CQkJCTxwYXRoIGlkPSJwYXRoNTU4MTciIGlua3NjYXBlOmNvbm5lY3Rvci1jdXJ2YXR1cmU9IjAiIHN0eWxlPSJmaWxsOiNFNUU1RTU7IiBkPSJNMTAuNjYsMzQuNzNIMFYyNC41OEwxMC42NiwzNC43M3oiLz4mI3hhOwkJCTwvZz4mI3hhOwkJCTxnIGlkPSJzaGFwZTMwMTYtMjkiIHRyYW5zZm9ybT0idHJhbnNsYXRlKDEuMDE1MzgsLTEuMDE1MzgpIj4mI3hhOwkJCQk8dGl0bGUgaWQ9InRpdGxlNTU4MjAiPnJlY3QxNTkwMjwvdGl0bGU+JiN4YTsJCQkJPHJlY3QgaWQ9InJlY3Q1NTgyMiIgeD0iMCIgeT0iNC4yNyIgc3R5bGU9ImZpbGw6I0ZGRkZGRjsiIHdpZHRoPSIxMi4xOCIgaGVpZ2h0PSIzMC40NiIvPiYjeGE7CQkJPC9nPiYjeGE7CQkJPGcgaWQ9InNoYXBlMzAxNy0zMSI+JiN4YTsJCQkJPHRpdGxlIGlkPSJ0aXRsZTU1ODI1Ij5wYXRoMTU5MDQ8L3RpdGxlPiYjeGE7CQkJCSYjeGE7CQkJCQk8cGF0aCBpZD0icGF0aDU1ODI3IiBpbmtzY2FwZTpjb25uZWN0b3ItY3VydmF0dXJlPSIwIiBzdHlsZT0iZmlsbDpub25lO3N0cm9rZTojNTU2QThBO3N0cm9rZS13aWR0aDoxLjU7c3Ryb2tlLW1pdGVybGltaXQ6MzsiIGQ9IiAgICAgIE0xMy4xNCwzLjI1SDAuNTFDMC4yMywzLjI1LDAsMy40OCwwLDMuNzZjMCwwLDAsMCwwLDBsMCwzMC40NmMwLDAuMjgsMC4yMywwLjUxLDAuNTEsMC41MWwyMi4zNCwwYzAuMjgsMCwwLjUxLTAuMjMsMC41MS0wLjUxICAgICAgbC0wLjAxLTIxLjEzTDEzLjE0LDMuMjV6Ii8+JiN4YTsJCQk8L2c+JiN4YTsJCQk8ZyBpZD0ic2hhcGUzMDE4LTMzIiB0cmFuc2Zvcm09InRyYW5zbGF0ZSgwLjUwNzY5MiwtMC41MDc2OTIpIj4mI3hhOwkJCQk8dGl0bGUgaWQ9InRpdGxlNTU4MzAiPnJlY3QxNTkwNjwvdGl0bGU+JiN4YTsJCQkJPHJlY3QgaWQ9InJlY3Q1NTgzMiIgeD0iMCIgeT0iNC4yNyIgc3R5bGU9ImZpbGw6I0U1RTVFNTsiIHdpZHRoPSI4LjEyIiBoZWlnaHQ9IjMwLjQ2Ii8+JiN4YTsJCQk8L2c+JiN4YTsJCQk8ZyBpZD0ic2hhcGUzMDE5LTM1IiB0cmFuc2Zvcm09InRyYW5zbGF0ZSgxMy4yLC0yMS41NzY5KSI+JiN4YTsJCQkJPHRpdGxlIGlkPSJ0aXRsZTU1ODM1Ij5wb2x5bGluZTE1OTA4PC90aXRsZT4mI3hhOwkJCQk8cGF0aCBpZD0icGF0aDU1ODM3IiBpbmtzY2FwZTpjb25uZWN0b3ItY3VydmF0dXJlPSIwIiBzdHlsZT0iZmlsbDpub25lOyIgZD0iTTAsMjQuNTh2MTAuMTVoMTAuNjZMMCwyNC41OHoiLz4mI3hhOwkJCQkmI3hhOwkJCQkJPHBhdGggaWQ9InBhdGg1NTgzOSIgaW5rc2NhcGU6Y29ubmVjdG9yLWN1cnZhdHVyZT0iMCIgc3R5bGU9ImZpbGw6bm9uZTtzdHJva2U6IzU1NkE4QTtzdHJva2Utd2lkdGg6MS41O3N0cm9rZS1taXRlcmxpbWl0OjM7IiBkPSIgICAgICBNMCwyNC41OHYxMC4xNWgxMC42NiIvPiYjeGE7CQkJPC9nPiYjeGE7CQk8L2c+JiN4YTsJCTxnIGlkPSJncm91cDMwMjAtMzgiIHRyYW5zZm9ybT0idHJhbnNsYXRlKDE2LjY5MDYpIj4mI3hhOwkJCTx0aXRsZSBpZD0idGl0bGU1NTg0MyI+ZzE1OTEwLjM3OTQyPC90aXRsZT4mI3hhOwkJCTxnIGlkPSJzaGFwZTMwMjEtMzkiIHRyYW5zZm9ybT0idHJhbnNsYXRlKDEzLjIsLTIxLjgzMDgpIj4mI3hhOwkJCQk8dGl0bGUgaWQ9InRpdGxlNTU4NDUiPnBvbHlnb24xNTkwMDwvdGl0bGU+JiN4YTsJCQkJPHBhdGggaWQ9InBhdGg1NTg0NyIgaW5rc2NhcGU6Y29ubmVjdG9yLWN1cnZhdHVyZT0iMCIgc3R5bGU9ImZpbGw6I0U1RTVFNTsiIGQ9Ik0xMC42NiwzNC43M0gwVjI0LjU4TDEwLjY2LDM0LjczeiIvPiYjeGE7CQkJPC9nPiYjeGE7CQkJPGcgaWQ9InNoYXBlMzAyMi00MSIgdHJhbnNmb3JtPSJ0cmFuc2xhdGUoMS4wMTUzOCwtMS4wMTUzOCkiPiYjeGE7CQkJCTx0aXRsZSBpZD0idGl0bGU1NTg1MCI+cmVjdDE1OTAyPC90aXRsZT4mI3hhOwkJCQk8cmVjdCBpZD0icmVjdDU1ODUyIiB4PSIwIiB5PSI0LjI3IiBzdHlsZT0iZmlsbDojRkZGRkZGOyIgd2lkdGg9IjEyLjE4IiBoZWlnaHQ9IjMwLjQ2Ii8+JiN4YTsJCQk8L2c+JiN4YTsJCQk8ZyBpZD0ic2hhcGUzMDIzLTQzIj4mI3hhOwkJCQk8dGl0bGUgaWQ9InRpdGxlNTU4NTUiPnBhdGgxNTkwNDwvdGl0bGU+JiN4YTsJCQkJJiN4YTsJCQkJCTxwYXRoIGlkPSJwYXRoNTU4NTciIGlua3NjYXBlOmNvbm5lY3Rvci1jdXJ2YXR1cmU9IjAiIHN0eWxlPSJmaWxsOm5vbmU7c3Ryb2tlOiM1NTZBOEE7c3Ryb2tlLXdpZHRoOjEuNTtzdHJva2UtbWl0ZXJsaW1pdDozOyIgZD0iICAgICAgTTEzLjE0LDMuMjVIMC41MUMwLjIzLDMuMjUsMCwzLjQ4LDAsMy43NmMwLDAsMCwwLDAsMGwwLDMwLjQ2YzAsMC4yOCwwLjIzLDAuNTEsMC41MSwwLjUxbDIyLjM0LDBjMC4yOCwwLDAuNTEtMC4yMywwLjUxLTAuNTEgICAgICBsLTAuMDEtMjEuMTNMMTMuMTQsMy4yNXoiLz4mI3hhOwkJCTwvZz4mI3hhOwkJCTxnIGlkPSJzaGFwZTMwMjQtNDUiIHRyYW5zZm9ybT0idHJhbnNsYXRlKDAuNTA3NjkyLC0wLjUwNzY5MikiPiYjeGE7CQkJCTx0aXRsZSBpZD0idGl0bGU1NTg2MCI+cmVjdDE1OTA2PC90aXRsZT4mI3hhOwkJCQk8cmVjdCBpZD0icmVjdDU1ODYyIiB4PSIwIiB5PSI0LjI3IiBzdHlsZT0iZmlsbDojRTVFNUU1OyIgd2lkdGg9IjguMTIiIGhlaWdodD0iMzAuNDYiLz4mI3hhOwkJCTwvZz4mI3hhOwkJCTxnIGlkPSJzaGFwZTMwMjUtNDciIHRyYW5zZm9ybT0idHJhbnNsYXRlKDEzLjIsLTIxLjU3NjkpIj4mI3hhOwkJCQk8dGl0bGUgaWQ9InRpdGxlNTU4NjUiPnBvbHlsaW5lMTU5MDg8L3RpdGxlPiYjeGE7CQkJCTxwYXRoIGlkPSJwYXRoNTU4NjciIGlua3NjYXBlOmNvbm5lY3Rvci1jdXJ2YXR1cmU9IjAiIHN0eWxlPSJmaWxsOm5vbmU7IiBkPSJNMCwyNC41OHYxMC4xNWgxMC42NkwwLDI0LjU4eiIvPiYjeGE7CQkJCSYjeGE7CQkJCQk8cGF0aCBpZD0icGF0aDU1ODY5IiBpbmtzY2FwZTpjb25uZWN0b3ItY3VydmF0dXJlPSIwIiBzdHlsZT0iZmlsbDpub25lO3N0cm9rZTojNTU2QThBO3N0cm9rZS13aWR0aDoxLjU7c3Ryb2tlLW1pdGVybGltaXQ6MzsiIGQ9IiAgICAgIE0wLDI0LjU4djEwLjE1aDEwLjY2Ii8+JiN4YTsJCQk8L2c+JiN4YTsJCTwvZz4mI3hhOwkJPGcgaWQ9Imdyb3VwMzAyNi01MCIgdHJhbnNmb3JtPSJ0cmFuc2xhdGUoMTIuODA0NCkiPiYjeGE7CQkJPHRpdGxlIGlkPSJ0aXRsZTU1ODczIj5nMTU5MTAuMzc5NDg8L3RpdGxlPiYjeGE7CQkJPGcgaWQ9InNoYXBlMzAyNy01MSIgdHJhbnNmb3JtPSJ0cmFuc2xhdGUoMTMuMiwtMjEuODMwOCkiPiYjeGE7CQkJCTx0aXRsZSBpZD0idGl0bGU1NTg3NSI+cG9seWdvbjE1OTAwPC90aXRsZT4mI3hhOwkJCQk8cGF0aCBpZD0icGF0aDU1ODc3IiBpbmtzY2FwZTpjb25uZWN0b3ItY3VydmF0dXJlPSIwIiBzdHlsZT0iZmlsbDojRTVFNUU1OyIgZD0iTTEwLjY2LDM0LjczSDBWMjQuNThMMTAuNjYsMzQuNzN6Ii8+JiN4YTsJCQk8L2c+JiN4YTsJCQk8ZyBpZD0ic2hhcGUzMDI4LTUzIiB0cmFuc2Zvcm09InRyYW5zbGF0ZSgxLjAxNTM4LC0xLjAxNTM4KSI+JiN4YTsJCQkJPHRpdGxlIGlkPSJ0aXRsZTU1ODgwIj5yZWN0MTU5MDI8L3RpdGxlPiYjeGE7CQkJCTxyZWN0IGlkPSJyZWN0NTU4ODIiIHg9IjAiIHk9IjQuMjciIHN0eWxlPSJmaWxsOiNGRkZGRkY7IiB3aWR0aD0iMTIuMTgiIGhlaWdodD0iMzAuNDYiLz4mI3hhOwkJCTwvZz4mI3hhOwkJCTxnIGlkPSJzaGFwZTMwMjktNTUiPiYjeGE7CQkJCTx0aXRsZSBpZD0idGl0bGU1NTg4NSI+cGF0aDE1OTA0PC90aXRsZT4mI3hhOwkJCQkmI3hhOwkJCQkJPHBhdGggaWQ9InBhdGg1NTg4NyIgaW5rc2NhcGU6Y29ubmVjdG9yLWN1cnZhdHVyZT0iMCIgc3R5bGU9ImZpbGw6bm9uZTtzdHJva2U6IzU1NkE4QTtzdHJva2Utd2lkdGg6MS41O3N0cm9rZS1taXRlcmxpbWl0OjM7IiBkPSIgICAgICBNMTMuMTQsMy4yNUgwLjUxQzAuMjMsMy4yNSwwLDMuNDgsMCwzLjc2YzAsMCwwLDAsMCwwbDAsMzAuNDZjMCwwLjI4LDAuMjMsMC41MSwwLjUxLDAuNTFsMjIuMzQsMGMwLjI4LDAsMC41MS0wLjIzLDAuNTEtMC41MSAgICAgIGwtMC4wMS0yMS4xM0wxMy4xNCwzLjI1eiIvPiYjeGE7CQkJPC9nPiYjeGE7CQkJPGcgaWQ9InNoYXBlMzAzMC01NyIgdHJhbnNmb3JtPSJ0cmFuc2xhdGUoMC41MDc2OTIsLTAuNTA3NjkyKSI+JiN4YTsJCQkJPHRpdGxlIGlkPSJ0aXRsZTU1ODkwIj5yZWN0MTU5MDY8L3RpdGxlPiYjeGE7CQkJCTxyZWN0IGlkPSJyZWN0NTU4OTIiIHg9IjAiIHk9IjQuMjciIHN0eWxlPSJmaWxsOiNFNUU1RTU7IiB3aWR0aD0iOC4xMiIgaGVpZ2h0PSIzMC40NiIvPiYjeGE7CQkJPC9nPiYjeGE7CQkJPGcgaWQ9InNoYXBlMzAzMS01OSIgdHJhbnNmb3JtPSJ0cmFuc2xhdGUoMTMuMiwtMjEuNTc2OSkiPiYjeGE7CQkJCTx0aXRsZSBpZD0idGl0bGU1NTg5NSI+cG9seWxpbmUxNTkwODwvdGl0bGU+JiN4YTsJCQkJPHBhdGggaWQ9InBhdGg1NTg5NyIgaW5rc2NhcGU6Y29ubmVjdG9yLWN1cnZhdHVyZT0iMCIgc3R5bGU9ImZpbGw6bm9uZTsiIGQ9Ik0wLDI0LjU4djEwLjE1aDEwLjY2TDAsMjQuNTh6Ii8+JiN4YTsJCQkJJiN4YTsJCQkJCTxwYXRoIGlkPSJwYXRoNTU4OTkiIGlua3NjYXBlOmNvbm5lY3Rvci1jdXJ2YXR1cmU9IjAiIHN0eWxlPSJmaWxsOm5vbmU7c3Ryb2tlOiM1NTZBOEE7c3Ryb2tlLXdpZHRoOjEuNTtzdHJva2UtbWl0ZXJsaW1pdDozOyIgZD0iICAgICAgTTAsMjQuNTh2MTAuMTVoMTAuNjYiLz4mI3hhOwkJCTwvZz4mI3hhOwkJPC9nPiYjeGE7CQk8ZyBpZD0iZ3JvdXAzMDMyLTYyIiB0cmFuc2Zvcm09InRyYW5zbGF0ZSg4LjczMzE0KSI+JiN4YTsJCQk8dGl0bGUgaWQ9InRpdGxlNTU5MDMiPmcxNTkxMC4zNzk1NDwvdGl0bGU+JiN4YTsJCQk8ZyBpZD0ic2hhcGUzMDMzLTYzIiB0cmFuc2Zvcm09InRyYW5zbGF0ZSgxMy4yLC0yMS44MzA4KSI+JiN4YTsJCQkJPHRpdGxlIGlkPSJ0aXRsZTU1OTA1Ij5wb2x5Z29uMTU5MDA8L3RpdGxlPiYjeGE7CQkJCTxwYXRoIGlkPSJwYXRoNTU5MDciIGlua3NjYXBlOmNvbm5lY3Rvci1jdXJ2YXR1cmU9IjAiIHN0eWxlPSJmaWxsOiNFNUU1RTU7IiBkPSJNMTAuNjYsMzQuNzNIMFYyNC41OEwxMC42NiwzNC43M3oiLz4mI3hhOwkJCTwvZz4mI3hhOwkJCTxnIGlkPSJzaGFwZTMwMzQtNjUiIHRyYW5zZm9ybT0idHJhbnNsYXRlKDEuMDE1MzgsLTEuMDE1MzgpIj4mI3hhOwkJCQk8dGl0bGUgaWQ9InRpdGxlNTU5MTAiPnJlY3QxNTkwMjwvdGl0bGU+JiN4YTsJCQkJPHJlY3QgaWQ9InJlY3Q1NTkxMiIgeD0iMCIgeT0iNC4yNyIgc3R5bGU9ImZpbGw6I0ZGRkZGRjsiIHdpZHRoPSIxMi4xOCIgaGVpZ2h0PSIzMC40NiIvPiYjeGE7CQkJPC9nPiYjeGE7CQkJPGcgaWQ9InNoYXBlMzAzNS02NyI+JiN4YTsJCQkJPHRpdGxlIGlkPSJ0aXRsZTU1OTE1Ij5wYXRoMTU5MDQ8L3RpdGxlPiYjeGE7CQkJCSYjeGE7CQkJCQk8cGF0aCBpZD0icGF0aDU1OTE3IiBpbmtzY2FwZTpjb25uZWN0b3ItY3VydmF0dXJlPSIwIiBzdHlsZT0iZmlsbDpub25lO3N0cm9rZTojNTU2QThBO3N0cm9rZS13aWR0aDoxLjU7c3Ryb2tlLW1pdGVybGltaXQ6MzsiIGQ9IiAgICAgIE0xMy4xNCwzLjI1SDAuNTFDMC4yMywzLjI1LDAsMy40OCwwLDMuNzZjMCwwLDAsMCwwLDBsMCwzMC40NmMwLDAuMjgsMC4yMywwLjUxLDAuNTEsMC41MWwyMi4zNCwwYzAuMjgsMCwwLjUxLTAuMjMsMC41MS0wLjUxICAgICAgbC0wLjAxLTIxLjEzTDEzLjE0LDMuMjV6Ii8+JiN4YTsJCQk8L2c+JiN4YTsJCQk8ZyBpZD0ic2hhcGUzMDM2LTY5IiB0cmFuc2Zvcm09InRyYW5zbGF0ZSgwLjUwNzY5MiwtMC41MDc2OTIpIj4mI3hhOwkJCQk8dGl0bGUgaWQ9InRpdGxlNTU5MjAiPnJlY3QxNTkwNjwvdGl0bGU+JiN4YTsJCQkJPHJlY3QgaWQ9InJlY3Q1NTkyMiIgeD0iMCIgeT0iNC4yNyIgc3R5bGU9ImZpbGw6I0U1RTVFNTsiIHdpZHRoPSI4LjEyIiBoZWlnaHQ9IjMwLjQ2Ii8+JiN4YTsJCQk8L2c+JiN4YTsJCQk8ZyBpZD0ic2hhcGUzMDM3LTcxIiB0cmFuc2Zvcm09InRyYW5zbGF0ZSgxMy4yLC0yMS41NzY5KSI+JiN4YTsJCQkJPHRpdGxlIGlkPSJ0aXRsZTU1OTI1Ij5wb2x5bGluZTE1OTA4PC90aXRsZT4mI3hhOwkJCQk8cGF0aCBpZD0icGF0aDU1OTI3IiBpbmtzY2FwZTpjb25uZWN0b3ItY3VydmF0dXJlPSIwIiBzdHlsZT0iZmlsbDpub25lOyIgZD0iTTAsMjQuNTh2MTAuMTVoMTAuNjZMMCwyNC41OHoiLz4mI3hhOwkJCQkmI3hhOwkJCQkJPHBhdGggaWQ9InBhdGg1NTkyOSIgaW5rc2NhcGU6Y29ubmVjdG9yLWN1cnZhdHVyZT0iMCIgc3R5bGU9ImZpbGw6bm9uZTtzdHJva2U6IzU1NkE4QTtzdHJva2Utd2lkdGg6MS41O3N0cm9rZS1taXRlcmxpbWl0OjM7IiBkPSIgICAgICBNMCwyNC41OHYxMC4xNWgxMC42NiIvPiYjeGE7CQkJPC9nPiYjeGE7CQk8L2c+JiN4YTsJCTxnIGlkPSJncm91cDMwMzgtNzQiIHRyYW5zZm9ybT0idHJhbnNsYXRlKDQuNzU5ODQpIj4mI3hhOwkJCTx0aXRsZSBpZD0idGl0bGU1NTkzMyI+ZzE1OTEwPC90aXRsZT4mI3hhOwkJCTxnIGlkPSJzaGFwZTMwMzktNzUiIHRyYW5zZm9ybT0idHJhbnNsYXRlKDEzLjIsLTIxLjgzMDgpIj4mI3hhOwkJCQk8dGl0bGUgaWQ9InRpdGxlNTU5MzUiPnBvbHlnb24xNTkwMDwvdGl0bGU+JiN4YTsJCQkJPHBhdGggaWQ9InBhdGg1NTkzNyIgaW5rc2NhcGU6Y29ubmVjdG9yLWN1cnZhdHVyZT0iMCIgc3R5bGU9ImZpbGw6I0U1RTVFNTsiIGQ9Ik0xMC42NiwzNC43M0gwVjI0LjU4TDEwLjY2LDM0LjczeiIvPiYjeGE7CQkJPC9nPiYjeGE7CQkJPGcgaWQ9InNoYXBlMzA0MC03NyIgdHJhbnNmb3JtPSJ0cmFuc2xhdGUoMS4wMTUzOCwtMS4wMTUzOCkiPiYjeGE7CQkJCTx0aXRsZSBpZD0idGl0bGU1NTk0MCI+cmVjdDE1OTAyPC90aXRsZT4mI3hhOwkJCQk8cmVjdCBpZD0icmVjdDU1OTQyIiB4PSIwIiB5PSI0LjI3IiBzdHlsZT0iZmlsbDojRkZGRkZGOyIgd2lkdGg9IjEyLjE4IiBoZWlnaHQ9IjMwLjQ2Ii8+JiN4YTsJCQk8L2c+JiN4YTsJCQk8ZyBpZD0ic2hhcGUzMDQxLTc5Ij4mI3hhOwkJCQk8dGl0bGUgaWQ9InRpdGxlNTU5NDUiPnBhdGgxNTkwNDwvdGl0bGU+JiN4YTsJCQkJJiN4YTsJCQkJCTxwYXRoIGlkPSJwYXRoNTU5NDciIGlua3NjYXBlOmNvbm5lY3Rvci1jdXJ2YXR1cmU9IjAiIHN0eWxlPSJmaWxsOm5vbmU7c3Ryb2tlOiM1NTZBOEE7c3Ryb2tlLXdpZHRoOjEuNTtzdHJva2UtbWl0ZXJsaW1pdDozOyIgZD0iICAgICAgTTEzLjE0LDMuMjVIMC41MUMwLjIzLDMuMjUsMCwzLjQ4LDAsMy43NmMwLDAsMCwwLDAsMGwwLDMwLjQ2YzAsMC4yOCwwLjIzLDAuNTEsMC41MSwwLjUxbDIyLjM0LDBjMC4yOCwwLDAuNTEtMC4yMywwLjUxLTAuNTEgICAgICBsLTAuMDEtMjEuMTNMMTMuMTQsMy4yNXoiLz4mI3hhOwkJCTwvZz4mI3hhOwkJCTxnIGlkPSJzaGFwZTMwNDItODEiIHRyYW5zZm9ybT0idHJhbnNsYXRlKDAuNTA3NjkyLC0wLjUwNzY5MikiPiYjeGE7CQkJCTx0aXRsZSBpZD0idGl0bGU1NTk1MCI+cmVjdDE1OTA2PC90aXRsZT4mI3hhOwkJCQk8cmVjdCBpZD0icmVjdDU1OTUyIiB4PSIwIiB5PSI0LjI3IiBzdHlsZT0iZmlsbDojRTVFNUU1OyIgd2lkdGg9IjguMTIiIGhlaWdodD0iMzAuNDYiLz4mI3hhOwkJCTwvZz4mI3hhOwkJCTxnIGlkPSJzaGFwZTMwNDMtODMiIHRyYW5zZm9ybT0idHJhbnNsYXRlKDEzLjIsLTIxLjU3NjkpIj4mI3hhOwkJCQk8dGl0bGUgaWQ9InRpdGxlNTU5NTUiPnBvbHlsaW5lMTU5MDg8L3RpdGxlPiYjeGE7CQkJCTxwYXRoIGlkPSJwYXRoNTU5NTciIGlua3NjYXBlOmNvbm5lY3Rvci1jdXJ2YXR1cmU9IjAiIHN0eWxlPSJmaWxsOm5vbmU7IiBkPSJNMCwyNC41OHYxMC4xNWgxMC42NkwwLDI0LjU4eiIvPiYjeGE7CQkJCSYjeGE7CQkJCQk8cGF0aCBpZD0icGF0aDU1OTU5IiBpbmtzY2FwZTpjb25uZWN0b3ItY3VydmF0dXJlPSIwIiBzdHlsZT0iZmlsbDpub25lO3N0cm9rZTojNTU2QThBO3N0cm9rZS13aWR0aDoxLjU7c3Ryb2tlLW1pdGVybGltaXQ6MzsiIGQ9IiAgICAgIE0wLDI0LjU4djEwLjE1aDEwLjY2Ii8+JiN4YTsJCQk8L2c+JiN4YTsJCTwvZz4mI3hhOwkJPGcgaWQ9Imdyb3VwMzA0NC04NiI+JiN4YTsJCQk8dGl0bGUgaWQ9InRpdGxlNTU5NjMiPmcxNTkzMDwvdGl0bGU+JiN4YTsJCQk8ZyBpZD0ic2hhcGUzMDQ1LTg3Ij4mI3hhOwkJCQk8dGl0bGUgaWQ9InRpdGxlNTU5NjUiPnBvbHlnb24xNTkxMjwvdGl0bGU+JiN4YTsJCQkJPHBhdGggaWQ9InBhdGg1NTk2NyIgaW5rc2NhcGU6Y29ubmVjdG9yLWN1cnZhdHVyZT0iMCIgc3R5bGU9ImZpbGw6I0ZGRkZGRjsiIGQ9Ik0yMy44NiwzNC43M0gwVjIuNzVoMTMuMzVsMTAuNTEsMTBWMzQuNzN6Ii8+JiN4YTsJCQk8L2c+JiN4YTsJCQk8ZyBpZD0ic2hhcGUzMDQ2LTg5IiB0cmFuc2Zvcm09InRyYW5zbGF0ZSgxMy4yLC0yMS44MzA4KSI+JiN4YTsJCQkJPHRpdGxlIGlkPSJ0aXRsZTU1OTcwIj5wb2x5Z29uMTU5MTQ8L3RpdGxlPiYjeGE7CQkJCTxwYXRoIGlkPSJwYXRoNTU5NzIiIGlua3NjYXBlOmNvbm5lY3Rvci1jdXJ2YXR1cmU9IjAiIHN0eWxlPSJmaWxsOiM1NUQyRjY7IiBkPSJNMTAuNjYsMzQuNzNIMFYyNC41OEwxMC42NiwzNC43M3oiLz4mI3hhOwkJCTwvZz4mI3hhOwkJCTxnIGlkPSJzaGFwZTMwNDctOTEiPiYjeGE7CQkJCTx0aXRsZSBpZD0idGl0bGU1NTk3NSI+cGF0aDE1OTE2PC90aXRsZT4mI3hhOwkJCQkmI3hhOwkJCQkJPHBhdGggaWQ9InBhdGg1NTk3NyIgaW5rc2NhcGU6Y29ubmVjdG9yLWN1cnZhdHVyZT0iMCIgc3R5bGU9ImZpbGw6bm9uZTtzdHJva2U6IzU1NkE4QTtzdHJva2Utd2lkdGg6MS41O3N0cm9rZS1taXRlcmxpbWl0OjM7IiBkPSIgICAgICBNMTMuMzksMy4yNUgwLjc0QzAuNDcsMy4yNSwwLDMuMjIsMCwzLjQ5djMwLjQ5YzAuMDksMC4zNywwLjM3LDAuNjYsMC43NCwwLjc1aDIyLjM4YzAuMjcsMCwwLjIzLTAuNDcsMC4yMy0wLjc1VjEyLjgzICAgICAgTDEzLjM5LDMuMjV6Ii8+JiN4YTsJCQk8L2c+JiN4YTsJCQk8ZyBpZD0ic2hhcGUzMDQ4LTkzIiB0cmFuc2Zvcm09InRyYW5zbGF0ZSgwLjUwNzY5MiwtMC41MDc2OTIpIj4mI3hhOwkJCQk8dGl0bGUgaWQ9InRpdGxlNTU5ODAiPnJlY3QxNTkxODwvdGl0bGU+JiN4YTsJCQkJPHJlY3QgaWQ9InJlY3Q1NTk4MiIgeD0iMCIgeT0iNC4yNyIgc3R5bGU9ImZpbGw6I0U1RTVFNTsiIHdpZHRoPSI4LjEyIiBoZWlnaHQ9IjMwLjQ2Ii8+JiN4YTsJCQk8L2c+JiN4YTsJCQk8ZyBpZD0ic2hhcGUzMDQ5LTk1IiB0cmFuc2Zvcm09InRyYW5zbGF0ZSgxMi42OTIzLC0yMS4zMjMxKSI+JiN4YTsJCQkJPHRpdGxlIGlkPSJ0aXRsZTU1OTg1Ij5wb2x5bGluZTE1OTIwPC90aXRsZT4mI3hhOwkJCQk8cGF0aCBpZD0icGF0aDU1OTg3IiBpbmtzY2FwZTpjb25uZWN0b3ItY3VydmF0dXJlPSIwIiBzdHlsZT0iZmlsbDpub25lOyIgZD0iTTAsMjQuNTh2MTAuMTVoMTAuNjZMMCwyNC41OHoiLz4mI3hhOwkJCQkmI3hhOwkJCQkJPHBhdGggaWQ9InBhdGg1NTk4OSIgaW5rc2NhcGU6Y29ubmVjdG9yLWN1cnZhdHVyZT0iMCIgc3R5bGU9ImZpbGw6bm9uZTtzdHJva2U6IzU1NkE4QTtzdHJva2Utd2lkdGg6MS41O3N0cm9rZS1taXRlcmxpbWl0OjM7IiBkPSIgICAgICBNMCwyNC41OHYxMC4xNWgxMC42NiIvPiYjeGE7CQkJPC9nPiYjeGE7CQkJPGcgaWQ9InNoYXBlMzA1MC05OCIgdHJhbnNmb3JtPSJ0cmFuc2xhdGUoMy41NTM4NSwtMjAuODE1NCkiPiYjeGE7CQkJCTx0aXRsZSBpZD0idGl0bGU1NTk5MiI+bGluZTE1OTIyPC90aXRsZT4mI3hhOwkJCQkmI3hhOwkJCQkJPHBhdGggaWQ9InBhdGg1NTk5NCIgaW5rc2NhcGU6Y29ubmVjdG9yLWN1cnZhdHVyZT0iMCIgc3R5bGU9ImZpbGw6bm9uZTtzdHJva2U6I0E3QTlBQztzdHJva2Utd2lkdGg6MS41O3N0cm9rZS1taXRlcmxpbWl0OjM7IiBkPSIgICAgICBNMCwzNC43M2g2LjYiLz4mI3hhOwkJCTwvZz4mI3hhOwkJCTxnIGlkPSJzaGFwZTMwNTEtMTAxIiB0cmFuc2Zvcm09InRyYW5zbGF0ZSgzLjU1Mzg1LC0xNi4yNDYyKSI+JiN4YTsJCQkJPHRpdGxlIGlkPSJ0aXRsZTU1OTk3Ij5saW5lMTU5MjQ8L3RpdGxlPiYjeGE7CQkJCSYjeGE7CQkJCQk8cGF0aCBpZD0icGF0aDU1OTk5IiBpbmtzY2FwZTpjb25uZWN0b3ItY3VydmF0dXJlPSIwIiBzdHlsZT0iZmlsbDpub25lO3N0cm9rZTojQTdBOUFDO3N0cm9rZS13aWR0aDoxLjU7c3Ryb2tlLW1pdGVybGltaXQ6MzsiIGQ9IiAgICAgIE0wLDM0LjczaDE2LjI1Ii8+JiN4YTsJCQk8L2c+JiN4YTsJCQk8ZyBpZD0ic2hhcGUzMDUyLTEwNCIgdHJhbnNmb3JtPSJ0cmFuc2xhdGUoMy41NTM4NSwtMTEuNjc2OSkiPiYjeGE7CQkJCTx0aXRsZSBpZD0idGl0bGU1NjAwMiI+bGluZTE1OTI2PC90aXRsZT4mI3hhOwkJCQkmI3hhOwkJCQkJPHBhdGggaWQ9InBhdGg1NjAwNCIgaW5rc2NhcGU6Y29ubmVjdG9yLWN1cnZhdHVyZT0iMCIgc3R5bGU9ImZpbGw6bm9uZTtzdHJva2U6I0E3QTlBQztzdHJva2Utd2lkdGg6MS41O3N0cm9rZS1taXRlcmxpbWl0OjM7IiBkPSIgICAgICBNMCwzNC43M2gxNi4yNSIvPiYjeGE7CQkJPC9nPiYjeGE7CQkJPGcgaWQ9InNoYXBlMzA1My0xMDciIHRyYW5zZm9ybT0idHJhbnNsYXRlKDMuNTUzODUsLTcuMTA3NjkpIj4mI3hhOwkJCQk8dGl0bGUgaWQ9InRpdGxlNTYwMDciPmxpbmUxNTkyODwvdGl0bGU+JiN4YTsJCQkJJiN4YTsJCQkJCTxwYXRoIGlkPSJwYXRoNTYwMDkiIGlua3NjYXBlOmNvbm5lY3Rvci1jdXJ2YXR1cmU9IjAiIHN0eWxlPSJmaWxsOm5vbmU7c3Ryb2tlOiNBN0E5QUM7c3Ryb2tlLXdpZHRoOjEuNTtzdHJva2UtbWl0ZXJsaW1pdDozOyIgZD0iICAgICAgTTAsMzQuNzNoMTYuMjUiLz4mI3hhOwkJCTwvZz4mI3hhOwkJPC9nPiYjeGE7CTwvZz4mI3hhOzwvZz4mI3hhOzwvc3ZnPg==;fontColor=#FFFFFF;fontSize=14;" vertex="1" parent="1">
          <mxGeometry x="446.87" y="550" width="72.27" height="45" as="geometry" />
        </mxCell>
        <mxCell id="iBqICV7l6kwAUIpkYqQP-34" style="edgeStyle=orthogonalEdgeStyle;rounded=0;orthogonalLoop=1;jettySize=auto;html=1;exitX=0.5;exitY=1;exitDx=0;exitDy=0;entryX=0;entryY=0.5;entryDx=0;entryDy=0;strokeColor=#FFFFFF;" edge="1" parent="1" source="iBqICV7l6kwAUIpkYqQP-35" target="iBqICV7l6kwAUIpkYqQP-20">
          <mxGeometry relative="1" as="geometry">
            <Array as="points">
              <mxPoint x="483" y="720" />
              <mxPoint x="570" y="720" />
              <mxPoint x="570" y="340" />
            </Array>
          </mxGeometry>
        </mxCell>
        <mxCell id="iBqICV7l6kwAUIpkYqQP-35" value="Load" style="shape=image;verticalLabelPosition=bottom;labelBackgroundColor=none;verticalAlign=top;aspect=fixed;imageAspect=0;image=data:image/svg+xml,PHN2ZyB4bWxuczpjYz0iaHR0cDovL2NyZWF0aXZlY29tbW9ucy5vcmcvbnMjIiB4bWxuczpkYz0iaHR0cDovL3B1cmwub3JnL2RjL2VsZW1lbnRzLzEuMS8iIHhtbG5zOmlua3NjYXBlPSJodHRwOi8vd3d3Lmlua3NjYXBlLm9yZy9uYW1lc3BhY2VzL2lua3NjYXBlIiB4bWxuczpyZGY9Imh0dHA6Ly93d3cudzMub3JnLzE5OTkvMDIvMjItcmRmLXN5bnRheC1ucyMiIHhtbG5zOnNvZGlwb2RpPSJodHRwOi8vc29kaXBvZGkuc291cmNlZm9yZ2UubmV0L0RURC9zb2RpcG9kaS0wLmR0ZCIgeG1sbnM6c3ZnPSJodHRwOi8vd3d3LnczLm9yZy8yMDAwL3N2ZyIgeG1sbnM9Imh0dHA6Ly93d3cudzMub3JnLzIwMDAvc3ZnIiB4bWxuczp4bGluaz0iaHR0cDovL3d3dy53My5vcmcvMTk5OS94bGluayIgdmVyc2lvbj0iMS4xIiBpZD0ic3ZnNTYwMTYiIGlua3NjYXBlOnZlcnNpb249IjAuOTIuMyAoMjQwNTU0NiwgMjAxOC0wMy0xMSkiIHNvZGlwb2RpOmRvY25hbWU9ImV0bC5zdmciIHg9IjBweCIgeT0iMHB4IiB2aWV3Qm94PSIwIDAgNTMuMzYgMzIuOTgiIHN0eWxlPSJlbmFibGUtYmFja2dyb3VuZDpuZXcgMCAwIDUzLjM2IDMyLjk4OyIgeG1sOnNwYWNlPSJwcmVzZXJ2ZSI+JiN4YTs8c29kaXBvZGk6bmFtZWR2aWV3IGJvcmRlcmNvbG9yPSIjNjY2NjY2IiBib3JkZXJvcGFjaXR5PSIxIiBmaXQtbWFyZ2luLWJvdHRvbT0iMCIgZml0LW1hcmdpbi1sZWZ0PSIwIiBmaXQtbWFyZ2luLXJpZ2h0PSIwIiBmaXQtbWFyZ2luLXRvcD0iMCIgZ3JpZHRvbGVyYW5jZT0iMTAiIGd1aWRldG9sZXJhbmNlPSIxMCIgaWQ9Im5hbWVkdmlldzU2MDE4IiBpbmtzY2FwZTpjdXJyZW50LWxheWVyPSJzdmc1NjAxNiIgaW5rc2NhcGU6Y3g9IjM1Ljk5NTUwOSIgaW5rc2NhcGU6Y3k9IjEzLjU4MDkxMSIgaW5rc2NhcGU6cGFnZW9wYWNpdHk9IjAiIGlua3NjYXBlOnBhZ2VzaGFkb3c9IjIiIGlua3NjYXBlOndpbmRvdy1oZWlnaHQ9IjEwMTciIGlua3NjYXBlOndpbmRvdy1tYXhpbWl6ZWQ9IjEiIGlua3NjYXBlOndpbmRvdy13aWR0aD0iMTkyMCIgaW5rc2NhcGU6d2luZG93LXg9Ii04IiBpbmtzY2FwZTp3aW5kb3cteT0iLTgiIGlua3NjYXBlOnpvb209IjkuMzYxMjkyIiBvYmplY3R0b2xlcmFuY2U9IjEwIiBwYWdlY29sb3I9IiNmZmZmZmYiIHNob3dncmlkPSJmYWxzZSI+JiN4YTsJPC9zb2RpcG9kaTpuYW1lZHZpZXc+JiN4YTs8ZyBpZD0iZzU2MDE0IiB0cmFuc2Zvcm09InRyYW5zbGF0ZSgtMC43NSwtMC45OTY2MTgyMSkiPiYjeGE7CTx0aXRsZSBpZD0idGl0bGU1NTc0OSI+UGFnZS0xPC90aXRsZT4mI3hhOwk8ZyBpZD0iZ3JvdXAzMDAxLTEiIHRyYW5zZm9ybT0idHJhbnNsYXRlKDEuNSwtMS41KSI+JiN4YTsJCTx0aXRsZSBpZD0idGl0bGU1NTc1MSI+RVRMPC90aXRsZT4mI3hhOwkJPGcgaWQ9Imdyb3VwMzAwMi0yIiB0cmFuc2Zvcm09InRyYW5zbGF0ZSgyOC41MDQzKSI+JiN4YTsJCQk8dGl0bGUgaWQ9InRpdGxlNTU3NTMiPmcxNTkxMC4zNzkyNDwvdGl0bGU+JiN4YTsJCQk8ZyBpZD0ic2hhcGUzMDAzLTMiIHRyYW5zZm9ybT0idHJhbnNsYXRlKDEzLjIsLTIxLjgzMDgpIj4mI3hhOwkJCQk8dGl0bGUgaWQ9InRpdGxlNTU3NTUiPnBvbHlnb24xNTkwMDwvdGl0bGU+JiN4YTsJCQkJPHBhdGggaWQ9InBhdGg1NTc1NyIgaW5rc2NhcGU6Y29ubmVjdG9yLWN1cnZhdHVyZT0iMCIgc3R5bGU9ImZpbGw6I0U1RTVFNTsiIGQ9Ik0xMC42NiwzNC43M0gwVjI0LjU4TDEwLjY2LDM0LjczeiIvPiYjeGE7CQkJPC9nPiYjeGE7CQkJPGcgaWQ9InNoYXBlMzAwNC01IiB0cmFuc2Zvcm09InRyYW5zbGF0ZSgxLjAxNTM4LC0xLjAxNTM4KSI+JiN4YTsJCQkJPHRpdGxlIGlkPSJ0aXRsZTU1NzYwIj5yZWN0MTU5MDI8L3RpdGxlPiYjeGE7CQkJCTxyZWN0IGlkPSJyZWN0NTU3NjIiIHg9IjAiIHk9IjQuMjciIHN0eWxlPSJmaWxsOiNGRkZGRkY7IiB3aWR0aD0iMTIuMTgiIGhlaWdodD0iMzAuNDYiLz4mI3hhOwkJCTwvZz4mI3hhOwkJCTxnIGlkPSJzaGFwZTMwMDUtNyI+JiN4YTsJCQkJPHRpdGxlIGlkPSJ0aXRsZTU1NzY1Ij5wYXRoMTU5MDQ8L3RpdGxlPiYjeGE7CQkJCSYjeGE7CQkJCQk8cGF0aCBpZD0icGF0aDU1NzY3IiBpbmtzY2FwZTpjb25uZWN0b3ItY3VydmF0dXJlPSIwIiBzdHlsZT0iZmlsbDpub25lO3N0cm9rZTojNTU2QThBO3N0cm9rZS13aWR0aDoxLjU7c3Ryb2tlLW1pdGVybGltaXQ6MzsiIGQ9IiAgICAgIE0xMy4xNCwzLjI1SDAuNTFDMC4yMywzLjI1LDAsMy40OCwwLDMuNzZjMCwwLDAsMCwwLDBsMCwzMC40NmMwLDAuMjgsMC4yMywwLjUxLDAuNTEsMC41MWwyMi4zNCwwYzAuMjgsMCwwLjUxLTAuMjMsMC41MS0wLjUxICAgICAgbC0wLjAxLTIxLjEzTDEzLjE0LDMuMjV6Ii8+JiN4YTsJCQk8L2c+JiN4YTsJCQk8ZyBpZD0ic2hhcGUzMDA2LTkiIHRyYW5zZm9ybT0idHJhbnNsYXRlKDAuNTA3NjkyLC0wLjUwNzY5MikiPiYjeGE7CQkJCTx0aXRsZSBpZD0idGl0bGU1NTc3MCI+cmVjdDE1OTA2PC90aXRsZT4mI3hhOwkJCQk8cmVjdCBpZD0icmVjdDU1NzcyIiB4PSIwIiB5PSI0LjI3IiBzdHlsZT0iZmlsbDojRTVFNUU1OyIgd2lkdGg9IjguMTIiIGhlaWdodD0iMzAuNDYiLz4mI3hhOwkJCTwvZz4mI3hhOwkJCTxnIGlkPSJzaGFwZTMwMDctMTEiIHRyYW5zZm9ybT0idHJhbnNsYXRlKDEzLjIsLTIxLjU3NjkpIj4mI3hhOwkJCQk8dGl0bGUgaWQ9InRpdGxlNTU3NzUiPnBvbHlsaW5lMTU5MDg8L3RpdGxlPiYjeGE7CQkJCTxwYXRoIGlkPSJwYXRoNTU3NzciIGlua3NjYXBlOmNvbm5lY3Rvci1jdXJ2YXR1cmU9IjAiIHN0eWxlPSJmaWxsOm5vbmU7IiBkPSJNMCwyNC41OHYxMC4xNWgxMC42NkwwLDI0LjU4eiIvPiYjeGE7CQkJCSYjeGE7CQkJCQk8cGF0aCBpZD0icGF0aDU1Nzc5IiBpbmtzY2FwZTpjb25uZWN0b3ItY3VydmF0dXJlPSIwIiBzdHlsZT0iZmlsbDpub25lO3N0cm9rZTojNTU2QThBO3N0cm9rZS13aWR0aDoxLjU7c3Ryb2tlLW1pdGVybGltaXQ6MzsiIGQ9IiAgICAgIE0wLDI0LjU4djEwLjE1aDEwLjY2Ii8+JiN4YTsJCQk8L2c+JiN4YTsJCTwvZz4mI3hhOwkJPGcgaWQ9Imdyb3VwMzAwOC0xNCIgdHJhbnNmb3JtPSJ0cmFuc2xhdGUoMjQuMjM0NCkiPiYjeGE7CQkJPHRpdGxlIGlkPSJ0aXRsZTU1NzgzIj5nMTU5MTAuMzc5MzA8L3RpdGxlPiYjeGE7CQkJPGcgaWQ9InNoYXBlMzAwOS0xNSIgdHJhbnNmb3JtPSJ0cmFuc2xhdGUoMTMuMiwtMjEuODMwOCkiPiYjeGE7CQkJCTx0aXRsZSBpZD0idGl0bGU1NTc4NSI+cG9seWdvbjE1OTAwPC90aXRsZT4mI3hhOwkJCQk8cGF0aCBpZD0icGF0aDU1Nzg3IiBpbmtzY2FwZTpjb25uZWN0b3ItY3VydmF0dXJlPSIwIiBzdHlsZT0iZmlsbDojRTVFNUU1OyIgZD0iTTEwLjY2LDM0LjczSDBWMjQuNThMMTAuNjYsMzQuNzN6Ii8+JiN4YTsJCQk8L2c+JiN4YTsJCQk8ZyBpZD0ic2hhcGUzMDEwLTE3IiB0cmFuc2Zvcm09InRyYW5zbGF0ZSgxLjAxNTM4LC0xLjAxNTM4KSI+JiN4YTsJCQkJPHRpdGxlIGlkPSJ0aXRsZTU1NzkwIj5yZWN0MTU5MDI8L3RpdGxlPiYjeGE7CQkJCTxyZWN0IGlkPSJyZWN0NTU3OTIiIHg9IjAiIHk9IjQuMjciIHN0eWxlPSJmaWxsOiNGRkZGRkY7IiB3aWR0aD0iMTIuMTgiIGhlaWdodD0iMzAuNDYiLz4mI3hhOwkJCTwvZz4mI3hhOwkJCTxnIGlkPSJzaGFwZTMwMTEtMTkiPiYjeGE7CQkJCTx0aXRsZSBpZD0idGl0bGU1NTc5NSI+cGF0aDE1OTA0PC90aXRsZT4mI3hhOwkJCQkmI3hhOwkJCQkJPHBhdGggaWQ9InBhdGg1NTc5NyIgaW5rc2NhcGU6Y29ubmVjdG9yLWN1cnZhdHVyZT0iMCIgc3R5bGU9ImZpbGw6bm9uZTtzdHJva2U6IzU1NkE4QTtzdHJva2Utd2lkdGg6MS41O3N0cm9rZS1taXRlcmxpbWl0OjM7IiBkPSIgICAgICBNMTMuMTQsMy4yNUgwLjUxQzAuMjMsMy4yNSwwLDMuNDgsMCwzLjc2YzAsMCwwLDAsMCwwbDAsMzAuNDZjMCwwLjI4LDAuMjMsMC41MSwwLjUxLDAuNTFsMjIuMzQsMGMwLjI4LDAsMC41MS0wLjIzLDAuNTEtMC41MSAgICAgIGwtMC4wMS0yMS4xM0wxMy4xNCwzLjI1eiIvPiYjeGE7CQkJPC9nPiYjeGE7CQkJPGcgaWQ9InNoYXBlMzAxMi0yMSIgdHJhbnNmb3JtPSJ0cmFuc2xhdGUoMC41MDc2OTIsLTAuNTA3NjkyKSI+JiN4YTsJCQkJPHRpdGxlIGlkPSJ0aXRsZTU1ODAwIj5yZWN0MTU5MDY8L3RpdGxlPiYjeGE7CQkJCTxyZWN0IGlkPSJyZWN0NTU4MDIiIHg9IjAiIHk9IjQuMjciIHN0eWxlPSJmaWxsOiNFNUU1RTU7IiB3aWR0aD0iOC4xMiIgaGVpZ2h0PSIzMC40NiIvPiYjeGE7CQkJPC9nPiYjeGE7CQkJPGcgaWQ9InNoYXBlMzAxMy0yMyIgdHJhbnNmb3JtPSJ0cmFuc2xhdGUoMTMuMiwtMjEuNTc2OSkiPiYjeGE7CQkJCTx0aXRsZSBpZD0idGl0bGU1NTgwNSI+cG9seWxpbmUxNTkwODwvdGl0bGU+JiN4YTsJCQkJPHBhdGggaWQ9InBhdGg1NTgwNyIgaW5rc2NhcGU6Y29ubmVjdG9yLWN1cnZhdHVyZT0iMCIgc3R5bGU9ImZpbGw6bm9uZTsiIGQ9Ik0wLDI0LjU4djEwLjE1aDEwLjY2TDAsMjQuNTh6Ii8+JiN4YTsJCQkJJiN4YTsJCQkJCTxwYXRoIGlkPSJwYXRoNTU4MDkiIGlua3NjYXBlOmNvbm5lY3Rvci1jdXJ2YXR1cmU9IjAiIHN0eWxlPSJmaWxsOm5vbmU7c3Ryb2tlOiM1NTZBOEE7c3Ryb2tlLXdpZHRoOjEuNTtzdHJva2UtbWl0ZXJsaW1pdDozOyIgZD0iICAgICAgTTAsMjQuNTh2MTAuMTVoMTAuNjYiLz4mI3hhOwkJCTwvZz4mI3hhOwkJPC9nPiYjeGE7CQk8ZyBpZD0iZ3JvdXAzMDE0LTI2IiB0cmFuc2Zvcm09InRyYW5zbGF0ZSgyMC41NzI4KSI+JiN4YTsJCQk8dGl0bGUgaWQ9InRpdGxlNTU4MTMiPmcxNTkxMC4zNzkzNjwvdGl0bGU+JiN4YTsJCQk8ZyBpZD0ic2hhcGUzMDE1LTI3IiB0cmFuc2Zvcm09InRyYW5zbGF0ZSgxMy4yLC0yMS44MzA4KSI+JiN4YTsJCQkJPHRpdGxlIGlkPSJ0aXRsZTU1ODE1Ij5wb2x5Z29uMTU5MDA8L3RpdGxlPiYjeGE7CQkJCTxwYXRoIGlkPSJwYXRoNTU4MTciIGlua3NjYXBlOmNvbm5lY3Rvci1jdXJ2YXR1cmU9IjAiIHN0eWxlPSJmaWxsOiNFNUU1RTU7IiBkPSJNMTAuNjYsMzQuNzNIMFYyNC41OEwxMC42NiwzNC43M3oiLz4mI3hhOwkJCTwvZz4mI3hhOwkJCTxnIGlkPSJzaGFwZTMwMTYtMjkiIHRyYW5zZm9ybT0idHJhbnNsYXRlKDEuMDE1MzgsLTEuMDE1MzgpIj4mI3hhOwkJCQk8dGl0bGUgaWQ9InRpdGxlNTU4MjAiPnJlY3QxNTkwMjwvdGl0bGU+JiN4YTsJCQkJPHJlY3QgaWQ9InJlY3Q1NTgyMiIgeD0iMCIgeT0iNC4yNyIgc3R5bGU9ImZpbGw6I0ZGRkZGRjsiIHdpZHRoPSIxMi4xOCIgaGVpZ2h0PSIzMC40NiIvPiYjeGE7CQkJPC9nPiYjeGE7CQkJPGcgaWQ9InNoYXBlMzAxNy0zMSI+JiN4YTsJCQkJPHRpdGxlIGlkPSJ0aXRsZTU1ODI1Ij5wYXRoMTU5MDQ8L3RpdGxlPiYjeGE7CQkJCSYjeGE7CQkJCQk8cGF0aCBpZD0icGF0aDU1ODI3IiBpbmtzY2FwZTpjb25uZWN0b3ItY3VydmF0dXJlPSIwIiBzdHlsZT0iZmlsbDpub25lO3N0cm9rZTojNTU2QThBO3N0cm9rZS13aWR0aDoxLjU7c3Ryb2tlLW1pdGVybGltaXQ6MzsiIGQ9IiAgICAgIE0xMy4xNCwzLjI1SDAuNTFDMC4yMywzLjI1LDAsMy40OCwwLDMuNzZjMCwwLDAsMCwwLDBsMCwzMC40NmMwLDAuMjgsMC4yMywwLjUxLDAuNTEsMC41MWwyMi4zNCwwYzAuMjgsMCwwLjUxLTAuMjMsMC41MS0wLjUxICAgICAgbC0wLjAxLTIxLjEzTDEzLjE0LDMuMjV6Ii8+JiN4YTsJCQk8L2c+JiN4YTsJCQk8ZyBpZD0ic2hhcGUzMDE4LTMzIiB0cmFuc2Zvcm09InRyYW5zbGF0ZSgwLjUwNzY5MiwtMC41MDc2OTIpIj4mI3hhOwkJCQk8dGl0bGUgaWQ9InRpdGxlNTU4MzAiPnJlY3QxNTkwNjwvdGl0bGU+JiN4YTsJCQkJPHJlY3QgaWQ9InJlY3Q1NTgzMiIgeD0iMCIgeT0iNC4yNyIgc3R5bGU9ImZpbGw6I0U1RTVFNTsiIHdpZHRoPSI4LjEyIiBoZWlnaHQ9IjMwLjQ2Ii8+JiN4YTsJCQk8L2c+JiN4YTsJCQk8ZyBpZD0ic2hhcGUzMDE5LTM1IiB0cmFuc2Zvcm09InRyYW5zbGF0ZSgxMy4yLC0yMS41NzY5KSI+JiN4YTsJCQkJPHRpdGxlIGlkPSJ0aXRsZTU1ODM1Ij5wb2x5bGluZTE1OTA4PC90aXRsZT4mI3hhOwkJCQk8cGF0aCBpZD0icGF0aDU1ODM3IiBpbmtzY2FwZTpjb25uZWN0b3ItY3VydmF0dXJlPSIwIiBzdHlsZT0iZmlsbDpub25lOyIgZD0iTTAsMjQuNTh2MTAuMTVoMTAuNjZMMCwyNC41OHoiLz4mI3hhOwkJCQkmI3hhOwkJCQkJPHBhdGggaWQ9InBhdGg1NTgzOSIgaW5rc2NhcGU6Y29ubmVjdG9yLWN1cnZhdHVyZT0iMCIgc3R5bGU9ImZpbGw6bm9uZTtzdHJva2U6IzU1NkE4QTtzdHJva2Utd2lkdGg6MS41O3N0cm9rZS1taXRlcmxpbWl0OjM7IiBkPSIgICAgICBNMCwyNC41OHYxMC4xNWgxMC42NiIvPiYjeGE7CQkJPC9nPiYjeGE7CQk8L2c+JiN4YTsJCTxnIGlkPSJncm91cDMwMjAtMzgiIHRyYW5zZm9ybT0idHJhbnNsYXRlKDE2LjY5MDYpIj4mI3hhOwkJCTx0aXRsZSBpZD0idGl0bGU1NTg0MyI+ZzE1OTEwLjM3OTQyPC90aXRsZT4mI3hhOwkJCTxnIGlkPSJzaGFwZTMwMjEtMzkiIHRyYW5zZm9ybT0idHJhbnNsYXRlKDEzLjIsLTIxLjgzMDgpIj4mI3hhOwkJCQk8dGl0bGUgaWQ9InRpdGxlNTU4NDUiPnBvbHlnb24xNTkwMDwvdGl0bGU+JiN4YTsJCQkJPHBhdGggaWQ9InBhdGg1NTg0NyIgaW5rc2NhcGU6Y29ubmVjdG9yLWN1cnZhdHVyZT0iMCIgc3R5bGU9ImZpbGw6I0U1RTVFNTsiIGQ9Ik0xMC42NiwzNC43M0gwVjI0LjU4TDEwLjY2LDM0LjczeiIvPiYjeGE7CQkJPC9nPiYjeGE7CQkJPGcgaWQ9InNoYXBlMzAyMi00MSIgdHJhbnNmb3JtPSJ0cmFuc2xhdGUoMS4wMTUzOCwtMS4wMTUzOCkiPiYjeGE7CQkJCTx0aXRsZSBpZD0idGl0bGU1NTg1MCI+cmVjdDE1OTAyPC90aXRsZT4mI3hhOwkJCQk8cmVjdCBpZD0icmVjdDU1ODUyIiB4PSIwIiB5PSI0LjI3IiBzdHlsZT0iZmlsbDojRkZGRkZGOyIgd2lkdGg9IjEyLjE4IiBoZWlnaHQ9IjMwLjQ2Ii8+JiN4YTsJCQk8L2c+JiN4YTsJCQk8ZyBpZD0ic2hhcGUzMDIzLTQzIj4mI3hhOwkJCQk8dGl0bGUgaWQ9InRpdGxlNTU4NTUiPnBhdGgxNTkwNDwvdGl0bGU+JiN4YTsJCQkJJiN4YTsJCQkJCTxwYXRoIGlkPSJwYXRoNTU4NTciIGlua3NjYXBlOmNvbm5lY3Rvci1jdXJ2YXR1cmU9IjAiIHN0eWxlPSJmaWxsOm5vbmU7c3Ryb2tlOiM1NTZBOEE7c3Ryb2tlLXdpZHRoOjEuNTtzdHJva2UtbWl0ZXJsaW1pdDozOyIgZD0iICAgICAgTTEzLjE0LDMuMjVIMC41MUMwLjIzLDMuMjUsMCwzLjQ4LDAsMy43NmMwLDAsMCwwLDAsMGwwLDMwLjQ2YzAsMC4yOCwwLjIzLDAuNTEsMC41MSwwLjUxbDIyLjM0LDBjMC4yOCwwLDAuNTEtMC4yMywwLjUxLTAuNTEgICAgICBsLTAuMDEtMjEuMTNMMTMuMTQsMy4yNXoiLz4mI3hhOwkJCTwvZz4mI3hhOwkJCTxnIGlkPSJzaGFwZTMwMjQtNDUiIHRyYW5zZm9ybT0idHJhbnNsYXRlKDAuNTA3NjkyLC0wLjUwNzY5MikiPiYjeGE7CQkJCTx0aXRsZSBpZD0idGl0bGU1NTg2MCI+cmVjdDE1OTA2PC90aXRsZT4mI3hhOwkJCQk8cmVjdCBpZD0icmVjdDU1ODYyIiB4PSIwIiB5PSI0LjI3IiBzdHlsZT0iZmlsbDojRTVFNUU1OyIgd2lkdGg9IjguMTIiIGhlaWdodD0iMzAuNDYiLz4mI3hhOwkJCTwvZz4mI3hhOwkJCTxnIGlkPSJzaGFwZTMwMjUtNDciIHRyYW5zZm9ybT0idHJhbnNsYXRlKDEzLjIsLTIxLjU3NjkpIj4mI3hhOwkJCQk8dGl0bGUgaWQ9InRpdGxlNTU4NjUiPnBvbHlsaW5lMTU5MDg8L3RpdGxlPiYjeGE7CQkJCTxwYXRoIGlkPSJwYXRoNTU4NjciIGlua3NjYXBlOmNvbm5lY3Rvci1jdXJ2YXR1cmU9IjAiIHN0eWxlPSJmaWxsOm5vbmU7IiBkPSJNMCwyNC41OHYxMC4xNWgxMC42NkwwLDI0LjU4eiIvPiYjeGE7CQkJCSYjeGE7CQkJCQk8cGF0aCBpZD0icGF0aDU1ODY5IiBpbmtzY2FwZTpjb25uZWN0b3ItY3VydmF0dXJlPSIwIiBzdHlsZT0iZmlsbDpub25lO3N0cm9rZTojNTU2QThBO3N0cm9rZS13aWR0aDoxLjU7c3Ryb2tlLW1pdGVybGltaXQ6MzsiIGQ9IiAgICAgIE0wLDI0LjU4djEwLjE1aDEwLjY2Ii8+JiN4YTsJCQk8L2c+JiN4YTsJCTwvZz4mI3hhOwkJPGcgaWQ9Imdyb3VwMzAyNi01MCIgdHJhbnNmb3JtPSJ0cmFuc2xhdGUoMTIuODA0NCkiPiYjeGE7CQkJPHRpdGxlIGlkPSJ0aXRsZTU1ODczIj5nMTU5MTAuMzc5NDg8L3RpdGxlPiYjeGE7CQkJPGcgaWQ9InNoYXBlMzAyNy01MSIgdHJhbnNmb3JtPSJ0cmFuc2xhdGUoMTMuMiwtMjEuODMwOCkiPiYjeGE7CQkJCTx0aXRsZSBpZD0idGl0bGU1NTg3NSI+cG9seWdvbjE1OTAwPC90aXRsZT4mI3hhOwkJCQk8cGF0aCBpZD0icGF0aDU1ODc3IiBpbmtzY2FwZTpjb25uZWN0b3ItY3VydmF0dXJlPSIwIiBzdHlsZT0iZmlsbDojRTVFNUU1OyIgZD0iTTEwLjY2LDM0LjczSDBWMjQuNThMMTAuNjYsMzQuNzN6Ii8+JiN4YTsJCQk8L2c+JiN4YTsJCQk8ZyBpZD0ic2hhcGUzMDI4LTUzIiB0cmFuc2Zvcm09InRyYW5zbGF0ZSgxLjAxNTM4LC0xLjAxNTM4KSI+JiN4YTsJCQkJPHRpdGxlIGlkPSJ0aXRsZTU1ODgwIj5yZWN0MTU5MDI8L3RpdGxlPiYjeGE7CQkJCTxyZWN0IGlkPSJyZWN0NTU4ODIiIHg9IjAiIHk9IjQuMjciIHN0eWxlPSJmaWxsOiNGRkZGRkY7IiB3aWR0aD0iMTIuMTgiIGhlaWdodD0iMzAuNDYiLz4mI3hhOwkJCTwvZz4mI3hhOwkJCTxnIGlkPSJzaGFwZTMwMjktNTUiPiYjeGE7CQkJCTx0aXRsZSBpZD0idGl0bGU1NTg4NSI+cGF0aDE1OTA0PC90aXRsZT4mI3hhOwkJCQkmI3hhOwkJCQkJPHBhdGggaWQ9InBhdGg1NTg4NyIgaW5rc2NhcGU6Y29ubmVjdG9yLWN1cnZhdHVyZT0iMCIgc3R5bGU9ImZpbGw6bm9uZTtzdHJva2U6IzU1NkE4QTtzdHJva2Utd2lkdGg6MS41O3N0cm9rZS1taXRlcmxpbWl0OjM7IiBkPSIgICAgICBNMTMuMTQsMy4yNUgwLjUxQzAuMjMsMy4yNSwwLDMuNDgsMCwzLjc2YzAsMCwwLDAsMCwwbDAsMzAuNDZjMCwwLjI4LDAuMjMsMC41MSwwLjUxLDAuNTFsMjIuMzQsMGMwLjI4LDAsMC41MS0wLjIzLDAuNTEtMC41MSAgICAgIGwtMC4wMS0yMS4xM0wxMy4xNCwzLjI1eiIvPiYjeGE7CQkJPC9nPiYjeGE7CQkJPGcgaWQ9InNoYXBlMzAzMC01NyIgdHJhbnNmb3JtPSJ0cmFuc2xhdGUoMC41MDc2OTIsLTAuNTA3NjkyKSI+JiN4YTsJCQkJPHRpdGxlIGlkPSJ0aXRsZTU1ODkwIj5yZWN0MTU5MDY8L3RpdGxlPiYjeGE7CQkJCTxyZWN0IGlkPSJyZWN0NTU4OTIiIHg9IjAiIHk9IjQuMjciIHN0eWxlPSJmaWxsOiNFNUU1RTU7IiB3aWR0aD0iOC4xMiIgaGVpZ2h0PSIzMC40NiIvPiYjeGE7CQkJPC9nPiYjeGE7CQkJPGcgaWQ9InNoYXBlMzAzMS01OSIgdHJhbnNmb3JtPSJ0cmFuc2xhdGUoMTMuMiwtMjEuNTc2OSkiPiYjeGE7CQkJCTx0aXRsZSBpZD0idGl0bGU1NTg5NSI+cG9seWxpbmUxNTkwODwvdGl0bGU+JiN4YTsJCQkJPHBhdGggaWQ9InBhdGg1NTg5NyIgaW5rc2NhcGU6Y29ubmVjdG9yLWN1cnZhdHVyZT0iMCIgc3R5bGU9ImZpbGw6bm9uZTsiIGQ9Ik0wLDI0LjU4djEwLjE1aDEwLjY2TDAsMjQuNTh6Ii8+JiN4YTsJCQkJJiN4YTsJCQkJCTxwYXRoIGlkPSJwYXRoNTU4OTkiIGlua3NjYXBlOmNvbm5lY3Rvci1jdXJ2YXR1cmU9IjAiIHN0eWxlPSJmaWxsOm5vbmU7c3Ryb2tlOiM1NTZBOEE7c3Ryb2tlLXdpZHRoOjEuNTtzdHJva2UtbWl0ZXJsaW1pdDozOyIgZD0iICAgICAgTTAsMjQuNTh2MTAuMTVoMTAuNjYiLz4mI3hhOwkJCTwvZz4mI3hhOwkJPC9nPiYjeGE7CQk8ZyBpZD0iZ3JvdXAzMDMyLTYyIiB0cmFuc2Zvcm09InRyYW5zbGF0ZSg4LjczMzE0KSI+JiN4YTsJCQk8dGl0bGUgaWQ9InRpdGxlNTU5MDMiPmcxNTkxMC4zNzk1NDwvdGl0bGU+JiN4YTsJCQk8ZyBpZD0ic2hhcGUzMDMzLTYzIiB0cmFuc2Zvcm09InRyYW5zbGF0ZSgxMy4yLC0yMS44MzA4KSI+JiN4YTsJCQkJPHRpdGxlIGlkPSJ0aXRsZTU1OTA1Ij5wb2x5Z29uMTU5MDA8L3RpdGxlPiYjeGE7CQkJCTxwYXRoIGlkPSJwYXRoNTU5MDciIGlua3NjYXBlOmNvbm5lY3Rvci1jdXJ2YXR1cmU9IjAiIHN0eWxlPSJmaWxsOiNFNUU1RTU7IiBkPSJNMTAuNjYsMzQuNzNIMFYyNC41OEwxMC42NiwzNC43M3oiLz4mI3hhOwkJCTwvZz4mI3hhOwkJCTxnIGlkPSJzaGFwZTMwMzQtNjUiIHRyYW5zZm9ybT0idHJhbnNsYXRlKDEuMDE1MzgsLTEuMDE1MzgpIj4mI3hhOwkJCQk8dGl0bGUgaWQ9InRpdGxlNTU5MTAiPnJlY3QxNTkwMjwvdGl0bGU+JiN4YTsJCQkJPHJlY3QgaWQ9InJlY3Q1NTkxMiIgeD0iMCIgeT0iNC4yNyIgc3R5bGU9ImZpbGw6I0ZGRkZGRjsiIHdpZHRoPSIxMi4xOCIgaGVpZ2h0PSIzMC40NiIvPiYjeGE7CQkJPC9nPiYjeGE7CQkJPGcgaWQ9InNoYXBlMzAzNS02NyI+JiN4YTsJCQkJPHRpdGxlIGlkPSJ0aXRsZTU1OTE1Ij5wYXRoMTU5MDQ8L3RpdGxlPiYjeGE7CQkJCSYjeGE7CQkJCQk8cGF0aCBpZD0icGF0aDU1OTE3IiBpbmtzY2FwZTpjb25uZWN0b3ItY3VydmF0dXJlPSIwIiBzdHlsZT0iZmlsbDpub25lO3N0cm9rZTojNTU2QThBO3N0cm9rZS13aWR0aDoxLjU7c3Ryb2tlLW1pdGVybGltaXQ6MzsiIGQ9IiAgICAgIE0xMy4xNCwzLjI1SDAuNTFDMC4yMywzLjI1LDAsMy40OCwwLDMuNzZjMCwwLDAsMCwwLDBsMCwzMC40NmMwLDAuMjgsMC4yMywwLjUxLDAuNTEsMC41MWwyMi4zNCwwYzAuMjgsMCwwLjUxLTAuMjMsMC41MS0wLjUxICAgICAgbC0wLjAxLTIxLjEzTDEzLjE0LDMuMjV6Ii8+JiN4YTsJCQk8L2c+JiN4YTsJCQk8ZyBpZD0ic2hhcGUzMDM2LTY5IiB0cmFuc2Zvcm09InRyYW5zbGF0ZSgwLjUwNzY5MiwtMC41MDc2OTIpIj4mI3hhOwkJCQk8dGl0bGUgaWQ9InRpdGxlNTU5MjAiPnJlY3QxNTkwNjwvdGl0bGU+JiN4YTsJCQkJPHJlY3QgaWQ9InJlY3Q1NTkyMiIgeD0iMCIgeT0iNC4yNyIgc3R5bGU9ImZpbGw6I0U1RTVFNTsiIHdpZHRoPSI4LjEyIiBoZWlnaHQ9IjMwLjQ2Ii8+JiN4YTsJCQk8L2c+JiN4YTsJCQk8ZyBpZD0ic2hhcGUzMDM3LTcxIiB0cmFuc2Zvcm09InRyYW5zbGF0ZSgxMy4yLC0yMS41NzY5KSI+JiN4YTsJCQkJPHRpdGxlIGlkPSJ0aXRsZTU1OTI1Ij5wb2x5bGluZTE1OTA4PC90aXRsZT4mI3hhOwkJCQk8cGF0aCBpZD0icGF0aDU1OTI3IiBpbmtzY2FwZTpjb25uZWN0b3ItY3VydmF0dXJlPSIwIiBzdHlsZT0iZmlsbDpub25lOyIgZD0iTTAsMjQuNTh2MTAuMTVoMTAuNjZMMCwyNC41OHoiLz4mI3hhOwkJCQkmI3hhOwkJCQkJPHBhdGggaWQ9InBhdGg1NTkyOSIgaW5rc2NhcGU6Y29ubmVjdG9yLWN1cnZhdHVyZT0iMCIgc3R5bGU9ImZpbGw6bm9uZTtzdHJva2U6IzU1NkE4QTtzdHJva2Utd2lkdGg6MS41O3N0cm9rZS1taXRlcmxpbWl0OjM7IiBkPSIgICAgICBNMCwyNC41OHYxMC4xNWgxMC42NiIvPiYjeGE7CQkJPC9nPiYjeGE7CQk8L2c+JiN4YTsJCTxnIGlkPSJncm91cDMwMzgtNzQiIHRyYW5zZm9ybT0idHJhbnNsYXRlKDQuNzU5ODQpIj4mI3hhOwkJCTx0aXRsZSBpZD0idGl0bGU1NTkzMyI+ZzE1OTEwPC90aXRsZT4mI3hhOwkJCTxnIGlkPSJzaGFwZTMwMzktNzUiIHRyYW5zZm9ybT0idHJhbnNsYXRlKDEzLjIsLTIxLjgzMDgpIj4mI3hhOwkJCQk8dGl0bGUgaWQ9InRpdGxlNTU5MzUiPnBvbHlnb24xNTkwMDwvdGl0bGU+JiN4YTsJCQkJPHBhdGggaWQ9InBhdGg1NTkzNyIgaW5rc2NhcGU6Y29ubmVjdG9yLWN1cnZhdHVyZT0iMCIgc3R5bGU9ImZpbGw6I0U1RTVFNTsiIGQ9Ik0xMC42NiwzNC43M0gwVjI0LjU4TDEwLjY2LDM0LjczeiIvPiYjeGE7CQkJPC9nPiYjeGE7CQkJPGcgaWQ9InNoYXBlMzA0MC03NyIgdHJhbnNmb3JtPSJ0cmFuc2xhdGUoMS4wMTUzOCwtMS4wMTUzOCkiPiYjeGE7CQkJCTx0aXRsZSBpZD0idGl0bGU1NTk0MCI+cmVjdDE1OTAyPC90aXRsZT4mI3hhOwkJCQk8cmVjdCBpZD0icmVjdDU1OTQyIiB4PSIwIiB5PSI0LjI3IiBzdHlsZT0iZmlsbDojRkZGRkZGOyIgd2lkdGg9IjEyLjE4IiBoZWlnaHQ9IjMwLjQ2Ii8+JiN4YTsJCQk8L2c+JiN4YTsJCQk8ZyBpZD0ic2hhcGUzMDQxLTc5Ij4mI3hhOwkJCQk8dGl0bGUgaWQ9InRpdGxlNTU5NDUiPnBhdGgxNTkwNDwvdGl0bGU+JiN4YTsJCQkJJiN4YTsJCQkJCTxwYXRoIGlkPSJwYXRoNTU5NDciIGlua3NjYXBlOmNvbm5lY3Rvci1jdXJ2YXR1cmU9IjAiIHN0eWxlPSJmaWxsOm5vbmU7c3Ryb2tlOiM1NTZBOEE7c3Ryb2tlLXdpZHRoOjEuNTtzdHJva2UtbWl0ZXJsaW1pdDozOyIgZD0iICAgICAgTTEzLjE0LDMuMjVIMC41MUMwLjIzLDMuMjUsMCwzLjQ4LDAsMy43NmMwLDAsMCwwLDAsMGwwLDMwLjQ2YzAsMC4yOCwwLjIzLDAuNTEsMC41MSwwLjUxbDIyLjM0LDBjMC4yOCwwLDAuNTEtMC4yMywwLjUxLTAuNTEgICAgICBsLTAuMDEtMjEuMTNMMTMuMTQsMy4yNXoiLz4mI3hhOwkJCTwvZz4mI3hhOwkJCTxnIGlkPSJzaGFwZTMwNDItODEiIHRyYW5zZm9ybT0idHJhbnNsYXRlKDAuNTA3NjkyLC0wLjUwNzY5MikiPiYjeGE7CQkJCTx0aXRsZSBpZD0idGl0bGU1NTk1MCI+cmVjdDE1OTA2PC90aXRsZT4mI3hhOwkJCQk8cmVjdCBpZD0icmVjdDU1OTUyIiB4PSIwIiB5PSI0LjI3IiBzdHlsZT0iZmlsbDojRTVFNUU1OyIgd2lkdGg9IjguMTIiIGhlaWdodD0iMzAuNDYiLz4mI3hhOwkJCTwvZz4mI3hhOwkJCTxnIGlkPSJzaGFwZTMwNDMtODMiIHRyYW5zZm9ybT0idHJhbnNsYXRlKDEzLjIsLTIxLjU3NjkpIj4mI3hhOwkJCQk8dGl0bGUgaWQ9InRpdGxlNTU5NTUiPnBvbHlsaW5lMTU5MDg8L3RpdGxlPiYjeGE7CQkJCTxwYXRoIGlkPSJwYXRoNTU5NTciIGlua3NjYXBlOmNvbm5lY3Rvci1jdXJ2YXR1cmU9IjAiIHN0eWxlPSJmaWxsOm5vbmU7IiBkPSJNMCwyNC41OHYxMC4xNWgxMC42NkwwLDI0LjU4eiIvPiYjeGE7CQkJCSYjeGE7CQkJCQk8cGF0aCBpZD0icGF0aDU1OTU5IiBpbmtzY2FwZTpjb25uZWN0b3ItY3VydmF0dXJlPSIwIiBzdHlsZT0iZmlsbDpub25lO3N0cm9rZTojNTU2QThBO3N0cm9rZS13aWR0aDoxLjU7c3Ryb2tlLW1pdGVybGltaXQ6MzsiIGQ9IiAgICAgIE0wLDI0LjU4djEwLjE1aDEwLjY2Ii8+JiN4YTsJCQk8L2c+JiN4YTsJCTwvZz4mI3hhOwkJPGcgaWQ9Imdyb3VwMzA0NC04NiI+JiN4YTsJCQk8dGl0bGUgaWQ9InRpdGxlNTU5NjMiPmcxNTkzMDwvdGl0bGU+JiN4YTsJCQk8ZyBpZD0ic2hhcGUzMDQ1LTg3Ij4mI3hhOwkJCQk8dGl0bGUgaWQ9InRpdGxlNTU5NjUiPnBvbHlnb24xNTkxMjwvdGl0bGU+JiN4YTsJCQkJPHBhdGggaWQ9InBhdGg1NTk2NyIgaW5rc2NhcGU6Y29ubmVjdG9yLWN1cnZhdHVyZT0iMCIgc3R5bGU9ImZpbGw6I0ZGRkZGRjsiIGQ9Ik0yMy44NiwzNC43M0gwVjIuNzVoMTMuMzVsMTAuNTEsMTBWMzQuNzN6Ii8+JiN4YTsJCQk8L2c+JiN4YTsJCQk8ZyBpZD0ic2hhcGUzMDQ2LTg5IiB0cmFuc2Zvcm09InRyYW5zbGF0ZSgxMy4yLC0yMS44MzA4KSI+JiN4YTsJCQkJPHRpdGxlIGlkPSJ0aXRsZTU1OTcwIj5wb2x5Z29uMTU5MTQ8L3RpdGxlPiYjeGE7CQkJCTxwYXRoIGlkPSJwYXRoNTU5NzIiIGlua3NjYXBlOmNvbm5lY3Rvci1jdXJ2YXR1cmU9IjAiIHN0eWxlPSJmaWxsOiM1NUQyRjY7IiBkPSJNMTAuNjYsMzQuNzNIMFYyNC41OEwxMC42NiwzNC43M3oiLz4mI3hhOwkJCTwvZz4mI3hhOwkJCTxnIGlkPSJzaGFwZTMwNDctOTEiPiYjeGE7CQkJCTx0aXRsZSBpZD0idGl0bGU1NTk3NSI+cGF0aDE1OTE2PC90aXRsZT4mI3hhOwkJCQkmI3hhOwkJCQkJPHBhdGggaWQ9InBhdGg1NTk3NyIgaW5rc2NhcGU6Y29ubmVjdG9yLWN1cnZhdHVyZT0iMCIgc3R5bGU9ImZpbGw6bm9uZTtzdHJva2U6IzU1NkE4QTtzdHJva2Utd2lkdGg6MS41O3N0cm9rZS1taXRlcmxpbWl0OjM7IiBkPSIgICAgICBNMTMuMzksMy4yNUgwLjc0QzAuNDcsMy4yNSwwLDMuMjIsMCwzLjQ5djMwLjQ5YzAuMDksMC4zNywwLjM3LDAuNjYsMC43NCwwLjc1aDIyLjM4YzAuMjcsMCwwLjIzLTAuNDcsMC4yMy0wLjc1VjEyLjgzICAgICAgTDEzLjM5LDMuMjV6Ii8+JiN4YTsJCQk8L2c+JiN4YTsJCQk8ZyBpZD0ic2hhcGUzMDQ4LTkzIiB0cmFuc2Zvcm09InRyYW5zbGF0ZSgwLjUwNzY5MiwtMC41MDc2OTIpIj4mI3hhOwkJCQk8dGl0bGUgaWQ9InRpdGxlNTU5ODAiPnJlY3QxNTkxODwvdGl0bGU+JiN4YTsJCQkJPHJlY3QgaWQ9InJlY3Q1NTk4MiIgeD0iMCIgeT0iNC4yNyIgc3R5bGU9ImZpbGw6I0U1RTVFNTsiIHdpZHRoPSI4LjEyIiBoZWlnaHQ9IjMwLjQ2Ii8+JiN4YTsJCQk8L2c+JiN4YTsJCQk8ZyBpZD0ic2hhcGUzMDQ5LTk1IiB0cmFuc2Zvcm09InRyYW5zbGF0ZSgxMi42OTIzLC0yMS4zMjMxKSI+JiN4YTsJCQkJPHRpdGxlIGlkPSJ0aXRsZTU1OTg1Ij5wb2x5bGluZTE1OTIwPC90aXRsZT4mI3hhOwkJCQk8cGF0aCBpZD0icGF0aDU1OTg3IiBpbmtzY2FwZTpjb25uZWN0b3ItY3VydmF0dXJlPSIwIiBzdHlsZT0iZmlsbDpub25lOyIgZD0iTTAsMjQuNTh2MTAuMTVoMTAuNjZMMCwyNC41OHoiLz4mI3hhOwkJCQkmI3hhOwkJCQkJPHBhdGggaWQ9InBhdGg1NTk4OSIgaW5rc2NhcGU6Y29ubmVjdG9yLWN1cnZhdHVyZT0iMCIgc3R5bGU9ImZpbGw6bm9uZTtzdHJva2U6IzU1NkE4QTtzdHJva2Utd2lkdGg6MS41O3N0cm9rZS1taXRlcmxpbWl0OjM7IiBkPSIgICAgICBNMCwyNC41OHYxMC4xNWgxMC42NiIvPiYjeGE7CQkJPC9nPiYjeGE7CQkJPGcgaWQ9InNoYXBlMzA1MC05OCIgdHJhbnNmb3JtPSJ0cmFuc2xhdGUoMy41NTM4NSwtMjAuODE1NCkiPiYjeGE7CQkJCTx0aXRsZSBpZD0idGl0bGU1NTk5MiI+bGluZTE1OTIyPC90aXRsZT4mI3hhOwkJCQkmI3hhOwkJCQkJPHBhdGggaWQ9InBhdGg1NTk5NCIgaW5rc2NhcGU6Y29ubmVjdG9yLWN1cnZhdHVyZT0iMCIgc3R5bGU9ImZpbGw6bm9uZTtzdHJva2U6I0E3QTlBQztzdHJva2Utd2lkdGg6MS41O3N0cm9rZS1taXRlcmxpbWl0OjM7IiBkPSIgICAgICBNMCwzNC43M2g2LjYiLz4mI3hhOwkJCTwvZz4mI3hhOwkJCTxnIGlkPSJzaGFwZTMwNTEtMTAxIiB0cmFuc2Zvcm09InRyYW5zbGF0ZSgzLjU1Mzg1LC0xNi4yNDYyKSI+JiN4YTsJCQkJPHRpdGxlIGlkPSJ0aXRsZTU1OTk3Ij5saW5lMTU5MjQ8L3RpdGxlPiYjeGE7CQkJCSYjeGE7CQkJCQk8cGF0aCBpZD0icGF0aDU1OTk5IiBpbmtzY2FwZTpjb25uZWN0b3ItY3VydmF0dXJlPSIwIiBzdHlsZT0iZmlsbDpub25lO3N0cm9rZTojQTdBOUFDO3N0cm9rZS13aWR0aDoxLjU7c3Ryb2tlLW1pdGVybGltaXQ6MzsiIGQ9IiAgICAgIE0wLDM0LjczaDE2LjI1Ii8+JiN4YTsJCQk8L2c+JiN4YTsJCQk8ZyBpZD0ic2hhcGUzMDUyLTEwNCIgdHJhbnNmb3JtPSJ0cmFuc2xhdGUoMy41NTM4NSwtMTEuNjc2OSkiPiYjeGE7CQkJCTx0aXRsZSBpZD0idGl0bGU1NjAwMiI+bGluZTE1OTI2PC90aXRsZT4mI3hhOwkJCQkmI3hhOwkJCQkJPHBhdGggaWQ9InBhdGg1NjAwNCIgaW5rc2NhcGU6Y29ubmVjdG9yLWN1cnZhdHVyZT0iMCIgc3R5bGU9ImZpbGw6bm9uZTtzdHJva2U6I0E3QTlBQztzdHJva2Utd2lkdGg6MS41O3N0cm9rZS1taXRlcmxpbWl0OjM7IiBkPSIgICAgICBNMCwzNC43M2gxNi4yNSIvPiYjeGE7CQkJPC9nPiYjeGE7CQkJPGcgaWQ9InNoYXBlMzA1My0xMDciIHRyYW5zZm9ybT0idHJhbnNsYXRlKDMuNTUzODUsLTcuMTA3NjkpIj4mI3hhOwkJCQk8dGl0bGUgaWQ9InRpdGxlNTYwMDciPmxpbmUxNTkyODwvdGl0bGU+JiN4YTsJCQkJJiN4YTsJCQkJCTxwYXRoIGlkPSJwYXRoNTYwMDkiIGlua3NjYXBlOmNvbm5lY3Rvci1jdXJ2YXR1cmU9IjAiIHN0eWxlPSJmaWxsOm5vbmU7c3Ryb2tlOiNBN0E5QUM7c3Ryb2tlLXdpZHRoOjEuNTtzdHJva2UtbWl0ZXJsaW1pdDozOyIgZD0iICAgICAgTTAsMzQuNzNoMTYuMjUiLz4mI3hhOwkJCTwvZz4mI3hhOwkJPC9nPiYjeGE7CTwvZz4mI3hhOzwvZz4mI3hhOzwvc3ZnPg==;fontColor=#FFFFFF;fontSize=14;" vertex="1" parent="1">
          <mxGeometry x="446.37" y="635" width="72.27" height="45" as="geometry" />
        </mxCell>
        <mxCell id="iBqICV7l6kwAUIpkYqQP-36" style="edgeStyle=orthogonalEdgeStyle;rounded=0;orthogonalLoop=1;jettySize=auto;html=1;exitX=0.75;exitY=0;exitDx=0;exitDy=0;entryX=0.75;entryY=1;entryDx=0;entryDy=0;strokeColor=#FFFFFF;" edge="1" parent="1" source="iBqICV7l6kwAUIpkYqQP-37" target="iBqICV7l6kwAUIpkYqQP-20">
          <mxGeometry relative="1" as="geometry" />
        </mxCell>
        <mxCell id="iBqICV7l6kwAUIpkYqQP-37" value="&lt;font color=&quot;#97d077&quot;&gt;Data&lt;br&gt;Lake&lt;/font&gt;" style="rounded=1;whiteSpace=wrap;html=1;dashed=1;strokeColor=none;strokeWidth=2;fillColor=#000000;fontFamily=Helvetica;fontSize=14;fontColor=#FFB366;opacity=75;verticalAlign=top;fontStyle=1" vertex="1" parent="1">
          <mxGeometry x="594" y="485" width="140" height="210" as="geometry" />
        </mxCell>
        <mxCell id="iBqICV7l6kwAUIpkYqQP-38" value="&lt;font color=&quot;#ffffff&quot; style=&quot;font-size: 14px;&quot;&gt;Data Mart&lt;/font&gt;" style="sketch=0;outlineConnect=0;fontColor=#232F3E;gradientColor=none;fillColor=#00CC00;strokeColor=none;dashed=0;verticalLabelPosition=bottom;verticalAlign=top;align=center;html=1;fontSize=12;fontStyle=0;aspect=fixed;pointerEvents=1;shape=mxgraph.aws4.marketplace;" vertex="1" parent="1">
          <mxGeometry x="625" y="310" width="78" height="78" as="geometry" />
        </mxCell>
        <mxCell id="iBqICV7l6kwAUIpkYqQP-42" value="&lt;font color=&quot;#ffffff&quot;&gt;Inventory&lt;/font&gt;&lt;div&gt;&lt;font color=&quot;#ffffff&quot;&gt;Reports&lt;/font&gt;&lt;/div&gt;" style="sketch=0;pointerEvents=1;shadow=0;dashed=0;html=1;strokeColor=none;fillColor=#97D077;labelPosition=center;verticalLabelPosition=bottom;verticalAlign=top;align=center;outlineConnect=0;shape=mxgraph.veeam2.report;fontSize=14;fontColor=#004C99;" vertex="1" parent="1">
          <mxGeometry x="803.63" y="406.5" width="77.75" height="74" as="geometry" />
        </mxCell>
        <mxCell id="iBqICV7l6kwAUIpkYqQP-43" style="edgeStyle=orthogonalEdgeStyle;rounded=0;orthogonalLoop=1;jettySize=auto;html=1;exitX=0.5;exitY=1;exitDx=0;exitDy=0;" edge="1" parent="1" source="iBqICV7l6kwAUIpkYqQP-20" target="iBqICV7l6kwAUIpkYqQP-20">
          <mxGeometry relative="1" as="geometry" />
        </mxCell>
        <mxCell id="iBqICV7l6kwAUIpkYqQP-50" value="Raw Data" style="shape=image;verticalLabelPosition=bottom;labelBackgroundColor=none;verticalAlign=top;aspect=fixed;imageAspect=0;image=data:image/svg+xml,PHN2ZyB4bWxuczpjYz0iaHR0cDovL2NyZWF0aXZlY29tbW9ucy5vcmcvbnMjIiB4bWxuczpkYz0iaHR0cDovL3B1cmwub3JnL2RjL2VsZW1lbnRzLzEuMS8iIHhtbG5zOmlua3NjYXBlPSJodHRwOi8vd3d3Lmlua3NjYXBlLm9yZy9uYW1lc3BhY2VzL2lua3NjYXBlIiB4bWxuczpyZGY9Imh0dHA6Ly93d3cudzMub3JnLzE5OTkvMDIvMjItcmRmLXN5bnRheC1ucyMiIHhtbG5zOnNvZGlwb2RpPSJodHRwOi8vc29kaXBvZGkuc291cmNlZm9yZ2UubmV0L0RURC9zb2RpcG9kaS0wLmR0ZCIgeG1sbnM6c3ZnPSJodHRwOi8vd3d3LnczLm9yZy8yMDAwL3N2ZyIgeG1sbnM9Imh0dHA6Ly93d3cudzMub3JnLzIwMDAvc3ZnIiB4bWxuczp4bGluaz0iaHR0cDovL3d3dy53My5vcmcvMTk5OS94bGluayIgdmVyc2lvbj0iMS4xIiBpZD0ic3ZnOTkwNTgiIGlua3NjYXBlOnZlcnNpb249IjAuOTIuMyAoMjQwNTU0NiwgMjAxOC0wMy0xMSkiIHNvZGlwb2RpOmRvY25hbWU9ImRhdGFiYXNlcy5zdmciIHg9IjBweCIgeT0iMHB4IiB2aWV3Qm94PSIwIDAgNTIuODggNjUuODciIHN0eWxlPSJlbmFibGUtYmFja2dyb3VuZDpuZXcgMCAwIDUyLjg4IDY1Ljg3OyIgeG1sOnNwYWNlPSJwcmVzZXJ2ZSI+JiN4YTs8c29kaXBvZGk6bmFtZWR2aWV3IGJvcmRlcmNvbG9yPSIjNjY2NjY2IiBib3JkZXJvcGFjaXR5PSIxIiBmaXQtbWFyZ2luLWJvdHRvbT0iMCIgZml0LW1hcmdpbi1sZWZ0PSIwIiBmaXQtbWFyZ2luLXJpZ2h0PSIwIiBmaXQtbWFyZ2luLXRvcD0iMCIgZ3JpZHRvbGVyYW5jZT0iMTAiIGd1aWRldG9sZXJhbmNlPSIxMCIgaWQ9Im5hbWVkdmlldzk5MDYwIiBpbmtzY2FwZTpjdXJyZW50LWxheWVyPSJzdmc5OTA1OCIgaW5rc2NhcGU6Y3g9IjM1LjI1IiBpbmtzY2FwZTpjeT0iNDMuOTE1OCIgaW5rc2NhcGU6cGFnZW9wYWNpdHk9IjAiIGlua3NjYXBlOnBhZ2VzaGFkb3c9IjIiIGlua3NjYXBlOndpbmRvdy1oZWlnaHQ9IjEwMTciIGlua3NjYXBlOndpbmRvdy1tYXhpbWl6ZWQ9IjEiIGlua3NjYXBlOndpbmRvdy13aWR0aD0iMTkyMCIgaW5rc2NhcGU6d2luZG93LXg9Ii04IiBpbmtzY2FwZTp3aW5kb3cteT0iLTgiIGlua3NjYXBlOnpvb209IjkuODcyMjY4NSIgb2JqZWN0dG9sZXJhbmNlPSIxMCIgcGFnZWNvbG9yPSIjZmZmZmZmIiBzaG93Z3JpZD0iZmFsc2UiPiYjeGE7CTwvc29kaXBvZGk6bmFtZWR2aWV3PiYjeGE7PGcgaWQ9Imc5OTA1NiIgdHJhbnNmb3JtPSJ0cmFuc2xhdGUoMCwtMC4wMDMyKSI+JiN4YTsJPHRpdGxlIGlkPSJ0aXRsZTk5MDQxIj5QYWdlLTE8L3RpdGxlPiYjeGE7CTxnIGlkPSJncm91cDM1MTAtMSI+JiN4YTsJCTx0aXRsZSBpZD0idGl0bGU5OTA0MyI+RGF0YWJhc2VzPC90aXRsZT4mI3hhOwkJPGcgaWQ9InNoYXBlMzUxMS0yIiB0cmFuc2Zvcm09InRyYW5zbGF0ZSgxLjAyNDcxLC01Ni40NTY4KSI+JiN4YTsJCQk8dGl0bGUgaWQ9InRpdGxlOTkwNDUiPlNoZWV0LjM1MTE8L3RpdGxlPiYjeGE7CQkJPHBhdGggaWQ9InBhdGg5OTA0NyIgaW5rc2NhcGU6Y29ubmVjdG9yLWN1cnZhdHVyZT0iMCIgc3R5bGU9ImZpbGw6IzNGNTc2NTsiIGQ9Ik0wLDYxLjE2YzAtMi41OSwxMS40My00LjcsMjUuNTItNC43ICAgICBjMTQuMSwwLDI1LjUxLDIuMTEsMjUuNTEsNC43YzAsMi42MS0xMS40MSw0LjcxLTI1LjUxLDQuNzFDMTEuNDMsNjUuODcsMCw2My43NywwLDYxLjE2eiIvPiYjeGE7CQk8L2c+JiN4YTsJCTxnIGlkPSJzaGFwZTM1MTItNCI+JiN4YTsJCQk8dGl0bGUgaWQ9InRpdGxlOTkwNTAiPlNoZWV0LjM1MTI8L3RpdGxlPiYjeGE7CQkJPHBhdGggaWQ9InBhdGg5OTA1MiIgaW5rc2NhcGU6Y29ubmVjdG9yLWN1cnZhdHVyZT0iMCIgc3R5bGU9ImZpbGw6IzNGNTc2NTsiIGQ9Ik01Mi44OCwyMC42NWMwLTE0LjMxLDAtMTQuMzEsMC0xNC4zMSAgICAgYy0zLjUzLDMuMjktMTYuOTYsNC41Ny0yNi40NCw0LjU3Yy05LjQ3LDAtMjIuOS0xLjI4LTI2LjQ0LTQuNTdjMCwxNC4zMSwwLDE0LjMxLDAsMTQuMzFjMCwwLjY0LDAuNTUsMS4yNiwxLjY1LDEuOSAgICAgQzAuNTUsMjMuMDgsMCwyMy43MiwwLDI0LjM1YzAsMTYuMSwwLDE2LjEsMCwxNi4xYzAsMC43NCwwLjU1LDEuMzgsMS42NSwxLjkxQzAuNTUsNDIuOTksMCw0My41MiwwLDQ0LjI2ICAgICBjMCwxNi4xMSwwLDE2LjExLDAsMTYuMTFjMCwyLjk2LDExLjksNS41LDI2LjQ0LDUuNWMxNC42NSwwLDI2LjQ0LTIuNTQsMjYuNDQtNS41YzAtMTYuMTEsMC0xNi4xMSwwLTE2LjExICAgICBjMC0wLjc0LTAuNTYtMS4yNy0xLjU0LTEuOWMwLjk4LTAuNTMsMS41NC0xLjE3LDEuNTQtMS45MWMwLTE2LjEsMC0xNi4xLDAtMTYuMWMwLTAuNjMtMC41Ni0xLjI3LTEuNTQtMS44ICAgICBDNTIuMzIsMjEuOTEsNTIuODgsMjEuMjksNTIuODgsMjAuNjV6IE01MC40NSw0My42M2MwLDEuNjktMTAuNjgsMi45Ny0yNC4wMSwyLjk3Yy0xMy4yMiwwLTIzLjktMS4yOC0yMy45LTIuOTcgICAgIGMwLTIuMDIsMC0yLjAyLDAtMi4wMmMwLDEuNywxMC42OCwyLjk3LDIzLjksMi45N2MxMy4zMywwLDI0LjAxLTEuMjcsMjQuMDEtMi45N1Y0My42M3ogTTUwLjQ1LDIzLjkzICAgICBjMCwxLjY5LTEwLjY4LDMuMDctMjQuMDEsMy4wN2MtMTMuMjIsMC0yMy45LTEuMzgtMjMuOS0zLjA3YzAtMi4wMiwwLTIuMDIsMC0yLjAyYzAsMS43LDEwLjY4LDMuMDgsMjMuOSwzLjA4ICAgICBjMTMuMzMsMCwyNC4wMS0xLjM4LDI0LjAxLTMuMDhMNTAuNDUsMjMuOTN6Ii8+JiN4YTsJCTwvZz4mI3hhOwk8L2c+JiN4YTs8L2c+JiN4YTs8L3N2Zz4=;imageBackground=#00CC00;fontColor=#FFFFFF;fontSize=15;" vertex="1" parent="1">
          <mxGeometry x="636" y="550" width="53" height="66" as="geometry" />
        </mxCell>
      </root>
    </mxGraphModel>
  </diagram>
</mxfile>
